<?xml version="1.0" encoding="UTF-8"?>
<svg version="1.1" xmlns="http://www.w3.org/2000/svg" width="2042" height="822">
<path d="M0 0 C86.13 0 172.26 0 261 0 C267 45 267 45 267 52 C285.15 52 303.3 52 322 52 C324.25007598 62.12534191 324.25007598 62.12534191 324.65811157 65.56582642 C324.7534166 66.3505986 324.84872162 67.13537079 324.94691467 67.94392395 C325.09041603 69.18331978 325.09041603 69.18331978 325.23681641 70.44775391 C325.34439774 71.34490616 325.45197906 72.24205841 325.56282043 73.16639709 C325.91365283 76.1025946 326.25782504 79.03952662 326.6015625 81.9765625 C326.84504181 84.03204671 327.08881074 86.08749663 327.33285522 88.14291382 C327.84173247 92.43770529 328.34734495 96.73286487 328.85058594 101.02832031 C329.49471714 106.52437005 330.14664001 112.01946193 330.80095863 117.51430702 C331.30496297 121.75364208 331.80501975 125.99343559 332.30387497 130.23337936 C332.54272033 132.25964535 332.78274108 134.28577317 333.02397537 136.31175613 C333.36062113 139.14439829 333.69198416 141.97761078 334.02197266 144.81103516 C334.12168869 145.6413475 334.22140472 146.47165985 334.32414246 147.32713318 C334.41380783 148.10626572 334.50347321 148.88539825 334.59585571 149.68814087 C334.67437586 150.35581293 334.752896 151.02348499 334.83379555 151.71138954 C335.05809466 154.79995478 335 157.90330089 335 161 C350.84 161 366.68 161 383 161 C384.38007351 163.76014702 384.4438736 166.29635013 384.76564026 169.37046814 C384.87105248 170.36215959 384.87105248 170.36215959 384.97859424 171.37388521 C385.21414599 173.59906048 385.44408626 175.82478021 385.67407227 178.05053711 C385.84137401 179.64203824 386.00901514 181.23350373 386.17697144 182.82493591 C386.63294599 187.15509096 387.08403413 191.48574269 387.53418851 195.81650615 C388.00536946 200.34242661 388.48071862 204.86790933 388.95555115 209.39344788 C389.75254295 216.99534196 390.54655848 224.5975422 391.33862305 232.19995117 C392.25504123 240.99576436 393.17522596 249.79117674 394.09764248 258.58636278 C395.07847893 267.93869885 396.05693641 277.29128256 397.0344913 286.64396214 C397.31677875 289.34340587 397.59947064 292.042807 397.88223457 294.74220085 C398.32614788 298.98138813 398.76844087 303.22074148 399.20946884 307.46022987 C399.37179954 309.01837055 399.53465816 310.57645633 399.69807625 312.13448334 C399.92060773 314.25702438 400.14122861 316.3797554 400.36134338 318.50254822 C400.48540841 319.69182891 400.60947344 320.8811096 400.73729801 322.1064291 C401 325 401 325 401 328 C414.86 328 428.72 328 443 328 C445.2500612 338.1252754 445.2500612 338.1252754 445.58218384 341.70422363 C445.66066055 342.51976212 445.73913727 343.3353006 445.81999207 344.17555237 C445.89695816 345.03607712 445.97392426 345.89660187 446.05322266 346.78320312 C446.14129684 347.71615707 446.22937103 348.64911102 446.32011414 349.6103363 C446.60712435 352.66680734 446.88582103 355.72396924 447.1640625 358.78125 C447.36260097 360.92162594 447.56153108 363.06196559 447.76083374 365.20227051 C448.1762429 369.67699905 448.58766003 374.15207092 448.99609375 378.62744141 C449.51833005 384.34741945 450.04936744 390.06653818 450.58326149 395.78543854 C450.99475201 400.20163474 451.40213505 404.61820233 451.80823898 409.03489685 C452.00247441 411.14320741 452.19783501 413.25141463 452.39436722 415.35951233 C452.66884177 418.31158368 452.93791308 421.26410025 453.20556641 424.21679688 C453.28658096 425.07732162 453.36759552 425.93784637 453.45106506 426.82444763 C453.52390213 427.63998611 453.5967392 428.4555246 453.67178345 429.29577637 C453.7355549 429.99110222 453.79932636 430.68642807 453.86503029 431.4028244 C454.0656667 435.26360158 454 439.13401301 454 443 C492.94 443 531.88 443 572 443 C572 437.72 572 432.44 572 427 C572.05825588 423.34227467 572.12552776 419.68786229 572.21875 416.03125 C572.25204407 414.63356384 572.25204407 414.63356384 572.28601074 413.2076416 C572.35555371 410.30504782 572.42771578 407.40252666 572.5 404.5 C572.54835287 402.50130633 572.59653105 400.50260842 572.64453125 398.50390625 C572.76101245 393.66921979 572.87983817 388.83459632 573 384 C572.43845718 384.00222061 571.87691437 384.00444122 571.2983551 384.00672913 C565.47519565 384.02878306 559.65204799 384.04390705 553.82885742 384.05493164 C551.65307127 384.05997308 549.47728853 384.06680607 547.30151367 384.07543945 C544.18146933 384.08751338 541.06146962 384.09323005 537.94140625 384.09765625 C536.47266808 384.10539818 536.47266808 384.10539818 534.97425842 384.11329651 C534.07340012 384.11337204 533.17254181 384.11344757 532.24438477 384.11352539 C531.04858543 384.11685631 531.04858543 384.11685631 529.82862854 384.12025452 C528 384 528 384 527 383 C526.79309495 381.35542918 526.65067115 379.7027076 526.53375244 378.04930115 C526.45547148 376.97414434 526.37719051 375.89898754 526.2965374 374.79125023 C526.21447107 373.59870943 526.13240475 372.40616863 526.04785156 371.17749023 C525.95811632 369.92616617 525.86838108 368.67484211 525.77592659 367.38559914 C525.52766048 363.92190712 525.28516065 360.45783169 525.04359388 356.99366689 C524.78653068 353.32166587 524.5241338 349.65004592 524.26235962 345.9783783 C523.75907209 338.90692049 523.26069839 331.83512523 522.76437986 324.76317519 C522.3656105 319.08131095 521.96556968 313.3995378 521.56451416 307.71783447 C521.50793652 306.91626317 521.45135888 306.11469186 521.39306676 305.28883052 C521.27886116 303.67092345 521.16464957 302.0530168 521.05043197 300.43511057 C520.31651305 290.03847005 519.58337242 279.641776 518.85317993 269.24487305 C517.73414615 253.31854854 516.60043385 237.39356288 515.41899109 221.47171974 C515.05715557 216.58159996 514.70142346 211.69103265 514.34608459 206.80043697 C514.09233753 203.31582199 513.83471271 199.8316124 513.56604004 196.34811401 C510.6127618 157.79356065 512.30530942 119.16949218 513.27960277 80.5606519 C513.42177373 74.9127361 513.55839603 69.2646963 513.69367355 63.61661172 C513.84224622 57.41858388 513.99457159 51.22065355 514.14857674 45.02275848 C514.21287382 42.42189525 514.27626317 39.82100939 514.33868217 37.2201004 C514.42625754 33.59358476 514.51812067 29.96720134 514.61108398 26.34082031 C514.63554092 25.29442886 514.65999786 24.24803741 514.68519592 23.16993713 C514.89082987 15.40529121 515.4449672 7.77045918 516 0 C708.06 0 900.12 0 1098 0 C1099.12503729 13.50044746 1099.12503729 13.50044746 1099.27210999 18.29519653 C1099.30714127 19.38793381 1099.34217255 20.48067108 1099.37826538 21.60652161 C1099.41207306 22.76004623 1099.44588074 23.91357086 1099.48071289 25.10205078 C1099.53945335 26.97788597 1099.53945335 26.97788597 1099.59938049 28.89161682 C1099.70498423 32.28657143 1099.80778548 35.68158677 1099.90911031 39.07667017 C1100.0165794 42.65972464 1100.12724825 46.24268062 1100.2374115 49.82565308 C1100.421993 55.84561625 1100.60398115 61.86565363 1100.78442383 67.88574219 C1100.99163041 74.79762325 1101.20303841 81.70936605 1101.41671187 88.62105 C1101.62375557 95.32183319 1101.82764953 102.02270892 1102.03021049 108.723629 C1102.11571032 111.5501105 1102.20228073 114.37655599 1102.28978157 117.20297623 C1102.41261121 121.17575275 1102.53083002 125.14865471 1102.64868164 129.12158203 C1102.68451355 130.26296127 1102.72034546 131.40434052 1102.75726318 132.58030701 C1103.0326087 142.06571681 1103 151.49664308 1103 161 C1118.84 161 1134.68 161 1151 161 C1151.53625 155.3075 1152.0725 149.615 1152.625 143.75 C1153.29803224 136.68402877 1153.97687707 129.61862876 1154.65771484 122.55340576 C1154.89405441 120.09986561 1155.13003455 117.64629081 1155.36572266 115.19268799 C1156.08020775 107.75835131 1156.79968063 100.3245411 1157.52963829 92.89170647 C1157.86053768 89.52141356 1158.18924465 86.15094147 1158.51251221 82.77990723 C1158.87977533 78.96331594 1159.25533017 75.14762355 1159.6328125 71.33203125 C1159.74105347 70.18887955 1159.84929443 69.04572784 1159.96081543 67.86793518 C1160.06800903 66.80139206 1160.17520264 65.73484894 1160.28564453 64.63598633 C1160.4207695 63.25048332 1160.4207695 63.25048332 1160.55862427 61.83699036 C1161.07799515 58.49867775 1162.07186219 55.24848232 1163 52 C1181.48 52 1199.96 52 1219 52 C1219.33 46.39 1219.66 40.78 1220 35 C1220.2800842 31.96614679 1220.57101858 28.95845518 1220.9375 25.9375 C1221.02249756 25.20926025 1221.10749512 24.48102051 1221.19506836 23.73071289 C1221.37080784 22.23555558 1221.54890806 20.74067366 1221.72949219 19.24609375 C1222.00649142 16.94610009 1222.27315598 14.64505002 1222.5390625 12.34375 C1222.71294507 10.87492925 1222.88740074 9.4061762 1223.0625 7.9375 C1223.14169678 7.25228271 1223.22089355 6.56706543 1223.30249023 5.86108398 C1223.88480403 1.11519597 1223.88480403 1.11519597 1225 0 C1227.74583108 -0.0989741 1230.46652855 -0.13175667 1233.2128458 -0.12304783 C1234.08857722 -0.12420167 1234.96430863 -0.12535552 1235.86657736 -0.12654433 C1238.83958262 -0.12921879 1241.81253513 -0.12468206 1244.78553772 -0.12025452 C1246.92304749 -0.12069005 1249.06055722 -0.12156462 1251.19806665 -0.12284368 C1257.10182928 -0.12509217 1263.00557396 -0.12106255 1268.9093343 -0.11606562 C1275.26452265 -0.11176635 1281.6197099 -0.11320717 1287.97489929 -0.1139679 C1298.99567473 -0.11449347 1310.01644417 -0.11137797 1321.03721809 -0.10573006 C1332.59986461 -0.0998196 1344.16250877 -0.09596544 1355.72515678 -0.09487724 C1356.44321568 -0.0948085 1357.16127457 -0.09473976 1357.90109282 -0.09466894 C1361.54752713 -0.09433062 1365.19396143 -0.09402923 1368.84039574 -0.09374207 C1394.6899041 -0.09163984 1420.53940939 -0.08489743 1446.38891602 -0.07543945 C1471.50642887 -0.06625989 1496.62394088 -0.05917389 1521.74145508 -0.05493164 C1522.51524451 -0.05480011 1523.28903395 -0.05466859 1524.08627155 -0.05453308 C1531.85675309 -0.05321459 1539.62723463 -0.05193877 1547.39771617 -0.05069422 C1563.22807039 -0.04815778 1579.05842455 -0.04533653 1594.88877869 -0.04234314 C1595.61668466 -0.04220585 1596.34459063 -0.04206856 1597.09455436 -0.04192711 C1645.72970421 -0.0327214 1694.36485226 -0.01685487 1743 0 C1745.93920328 28.85852358 1748.68567724 57.732733 1751.35324001 86.61752748 C1751.79814435 91.43230312 1752.24417865 96.24697385 1752.69019511 101.06164657 C1754.28114567 118.23610492 1755.86768828 135.41096948 1757.453125 152.5859375 C1757.5798035 153.95817157 1757.70648225 155.33040562 1757.83316123 156.70263964 C1760.26393693 183.03431048 1762.69298396 209.36614086 1765.11824886 235.69831987 C1765.73046839 242.34543463 1766.34276012 248.99254274 1766.95507812 255.63964844 C1767.02270934 256.37384944 1767.09034056 257.10805044 1767.16002121 257.86449996 C1769.35712762 281.71552325 1771.56276747 305.56574754 1773.77307433 329.41555087 C1776.05530117 354.04181139 1778.32975427 378.66877732 1780.59422865 403.29667692 C1780.91454139 406.78030692 1781.2349374 410.26392925 1781.55538177 413.74754715 C1781.6184207 414.43289253 1781.68145962 415.11823791 1781.74640881 415.82435132 C1782.75522739 426.78964113 1783.77202964 437.7541761 1784.79188263 448.71844451 C1785.81734298 459.7450109 1786.833771 470.77238818 1787.84186319 481.80055748 C1788.38677174 487.75891641 1788.93538678 493.71686808 1789.49456406 499.67390633 C1795.48377608 563.55533757 1795.48377608 563.55533757 1789.03125 582.51171875 C1788.60056195 583.87076067 1788.17336346 585.23091231 1787.74926758 586.59202576 C1786.84381491 589.47434797 1785.91650538 592.34817284 1784.96948242 595.21710205 C1783.45021911 599.82090962 1781.9842361 604.44071309 1780.52539062 609.06396484 C1778.9733807 613.9744393 1777.41803952 618.88372241 1775.84509277 623.78753662 C1772.02146544 635.71148548 1768.31604275 647.66763714 1764.6875 659.65234375 C1764.4296982 660.5038073 1764.1718964 661.35527084 1763.90628242 662.23253632 C1762.61349871 666.50471528 1761.32272738 670.77749879 1760.0329895 675.05059814 C1757.77346939 682.53433798 1755.49891256 690.01351038 1753.22578621 697.49312592 C1752.0363701 701.40747387 1750.84797283 705.32213098 1749.65966797 709.23681641 C1749.43372106 709.98113922 1749.20777414 710.72546204 1748.97498035 711.49234009 C1747.14268278 717.5288689 1745.31203424 723.56589693 1743.48171997 729.60302734 C1742.14357576 734.01582015 1740.8041457 738.42822184 1739.46435547 742.84051514 C1738.58950126 745.72351974 1737.71659217 748.6071084 1736.84375 751.49072266 C1736.33475182 753.16702754 1735.82564558 754.84329961 1735.31640625 756.51953125 C1735.09163101 757.26426193 1734.86685577 758.00899261 1734.63526917 758.77629089 C1733.11404781 763.77190438 1733.11404781 763.77190438 1732 766 C1717.81 766 1703.62 766 1689 766 C1687.68 771.28 1686.36 776.56 1685 782 C1684.09999824 785.27739638 1683.19086646 788.54336457 1682.23828125 791.8046875 C1682.00215622 792.6207547 1681.76603119 793.4368219 1681.52275085 794.27761841 C1681.03439507 795.96299336 1680.54464535 797.64796507 1680.0534668 799.33251953 C1679.29943916 801.91981568 1678.55080913 804.50863333 1677.80273438 807.09765625 C1677.32322714 808.75009013 1676.84342117 810.40243735 1676.36328125 812.0546875 C1676.14037918 812.82537567 1675.91747711 813.59606384 1675.68782043 814.3901062 C1674.11561506 819.76876988 1674.11561506 819.76876988 1673 822 C1524.17 822 1375.34 822 1222 822 C1221.11119541 815.77836787 1220.67745721 809.82105602 1220.4375 803.5625 C1220.37272461 802.12293945 1220.37272461 802.12293945 1220.30664062 800.65429688 C1219.84575945 789.08837408 1220 777.60287041 1220 766 C1198.88 766 1177.76 766 1156 766 C1155.32794379 759.95149413 1154.80118159 754.07299702 1154.61108398 748.01464844 C1154.56697388 746.74189812 1154.56697388 746.74189812 1154.52197266 745.44343567 C1154.42660049 742.66551907 1154.33622065 739.88746633 1154.24609375 737.109375 C1154.18050344 735.15797121 1154.11466772 733.20657565 1154.04859924 731.25518799 C1153.91115679 727.17361255 1153.77608611 723.09196787 1153.64282227 719.01025391 C1153.4729777 713.81132608 1153.29815382 708.61258085 1153.12164211 703.41387558 C1152.98525503 699.38502535 1152.85108672 695.35610359 1152.7176075 691.32715607 C1152.65398686 689.41203172 1152.58980504 687.49692591 1152.52502251 685.58184052 C1152.43435589 682.88893655 1152.34657369 680.19595263 1152.25952148 677.50292969 C1152.21979973 676.34592308 1152.21979973 676.34592308 1152.17927551 675.1655426 C1151.96673647 668.43386546 1152 661.74728965 1152 655 C1139.13 655 1126.26 655 1113 655 C1113 658.3 1113 661.6 1113 665 C1112.84018711 667.34603462 1112.64243932 669.68992493 1112.39930725 672.02879333 C1112.19953529 673.98657967 1112.19953529 673.98657967 1111.99572754 675.98391724 C1111.84629288 677.39741063 1111.6967533 678.81089294 1111.54711914 680.22436523 C1111.39067801 681.73815039 1111.23467938 683.25198133 1111.0790863 684.76585388 C1110.65813628 688.84847865 1110.23079771 692.93041091 1109.80206609 697.01222491 C1109.35347033 701.29191074 1108.91019991 705.57214855 1108.46617126 709.85231018 C1107.72067939 717.03041484 1106.97110886 724.20808448 1106.21899414 731.38549805 C1105.3493099 739.6852764 1104.48570006 747.98566955 1103.62539583 756.28642505 C1102.79673421 764.28086026 1101.96421746 772.2748892 1101.12978935 780.26872444 C1100.7749558 783.66845695 1100.42140441 787.0683192 1100.06886482 790.46829033 C1099.6542314 794.46512322 1099.23620589 798.4615871 1098.81553078 802.45778847 C1098.66157351 803.92545277 1098.50877648 805.39323931 1098.35721207 806.86115265 C1098.1505139 808.86112691 1097.93922051 810.86062467 1097.72767639 812.86009216 C1097.61060868 813.97998755 1097.49354097 815.09988295 1097.37292576 816.25371456 C1097 819 1097 819 1096 822 C672.28 822 248.56 822 -188 822 C-195.92 796.59 -203.84 771.18 -212 745 C-215.444375 733.98625 -218.88875 722.9725 -222.4375 711.625 C-224.02949219 706.50097656 -225.62148437 701.37695312 -227.26171875 696.09765625 C-230.03380974 687.20364897 -232.85665226 678.33184354 -235.77088928 669.48388672 C-237.40360761 664.52442799 -239.00363672 659.55445847 -240.60379028 654.58441162 C-241.34964946 652.2926407 -242.10818407 650.00494343 -242.88131714 647.722229 C-243.9496341 644.56574713 -244.97072023 641.39704745 -245.984375 638.22265625 C-246.29264725 637.35209091 -246.60091949 636.48152557 -246.91853333 635.58457947 C-253.41034337 614.57325414 -248.25550259 589.29951672 -246.20592427 567.73465824 C-245.80865972 563.52979817 -245.42425604 559.32375942 -245.03819275 555.11785889 C-244.39083317 548.08452869 -243.73518802 541.05201431 -243.07348633 534.02001953 C-242.22487836 525.00144993 -241.38942062 515.98171279 -240.55825138 506.96152115 C-239.83989524 499.16564453 -239.11669561 491.37021852 -238.39214015 483.57491589 C-238.23740803 481.90956864 -238.08282854 480.24420721 -237.92840123 478.57883167 C-237.48968609 473.84812745 -237.04838391 469.11768039 -236.60272789 464.38762474 C-236.46839599 462.95783804 -236.33495041 461.52796774 -236.20246124 460.09800911 C-236.02137814 458.14561244 -235.83665296 456.1935546 -235.65174866 454.24151611 C-235.54942964 453.15032093 -235.44711061 452.05912575 -235.34169102 450.93486404 C-235.03147693 448.27036269 -234.52608131 445.63040656 -234 443 C-211.89 443 -189.78 443 -167 443 C-166.62875 438.00875 -166.2575 433.0175 -165.875 427.875 C-164.44436937 409.1514416 -162.91069085 390.43605997 -161.3381958 371.72393799 C-161.07031065 368.53324781 -160.80597243 365.34229352 -160.5446167 362.15106201 C-160.23141924 358.32951348 -159.91086216 354.50864956 -159.58489799 350.68816948 C-159.46444357 349.26239587 -159.34650628 347.83640707 -159.23124886 346.41020393 C-159.07118478 344.43557315 -158.90091877 342.4617774 -158.73022461 340.48803711 C-158.63712509 339.37545029 -158.54402557 338.26286346 -158.44810486 337.11656189 C-158 334 -158 334 -156 328 C-134.22 328 -112.44 328 -90 328 C-90 323.71 -90 319.42 -90 315 C-89.88654298 312.5728181 -89.74357427 310.14653666 -89.55116272 307.72433472 C-89.45163803 306.4402623 -89.35211334 305.15618988 -89.24957275 303.83320618 C-89.13791983 302.45894553 -89.02616101 301.08469348 -88.91430664 299.71044922 C-88.79727662 298.22576707 -88.68068705 296.74105015 -88.5644989 295.25630188 C-88.25097929 291.2669428 -87.93110397 287.27811786 -87.60978246 283.28938055 C-87.27333558 279.10171791 -86.94216608 274.91363735 -86.61021423 270.72561646 C-86.05305921 263.70676155 -85.49178838 256.68824515 -84.92797852 249.66992188 C-84.27617968 241.55572147 -83.63076979 233.4410319 -82.9887591 225.32605159 C-82.36971878 217.50305644 -81.74640617 209.6804075 -81.12106133 201.85791397 C-80.85536707 198.53352514 -80.59113921 195.20902456 -80.32808113 191.88442612 C-80.01883367 187.97870917 -79.70584204 184.07331001 -79.389925 180.16812706 C-79.27453595 178.73430558 -79.16043736 177.30037959 -79.04771042 175.86634636 C-78.89391067 173.91256212 -78.73500483 171.9591818 -78.57582092 170.00582886 C-78.44446542 168.365015 -78.44446542 168.365015 -78.31045628 166.69105339 C-78 164 -78 164 -77 161 C-55.55 161 -34.1 161 -12 161 C-11.59007812 154.92207031 -11.18015625 148.84414062 -10.7578125 142.58203125 C-9.04734133 117.40553156 -7.23956364 92.23625441 -5.41064453 67.06811523 C-4.95670011 60.81952671 -4.5059774 54.57070978 -4.0559063 48.32184124 C-3.70410535 43.44472855 -3.35012028 38.56777619 -2.99551773 33.69086647 C-2.82806736 31.38289986 -2.6614146 29.07487522 -2.49560165 26.76679039 C-2.26614028 23.57571829 -2.03360039 20.38488468 -1.80029297 17.1940918 C-1.70054672 15.7926593 -1.70054672 15.7926593 -1.5987854 14.36291504 C-1.53443298 13.49132248 -1.47008057 12.61972992 -1.40377808 11.72172546 C-1.32251332 10.60035958 -1.32251332 10.60035958 -1.23960686 9.45633984 C-0.93096424 6.29227694 -0.44958991 3.14712935 0 0 Z " fill="#000000" transform="translate(249,0)"/>
<path d="M0 0 C169.62 0 339.24 0 514 0 C514.63585529 5.72269764 515.15207561 11.10064381 515.31045628 16.80982399 C515.3318706 17.54492683 515.35328493 18.28002967 515.37534818 19.03740835 C515.44571768 21.4842951 515.51077358 23.93129284 515.57582092 26.37832642 C515.62586612 28.15769207 515.67623652 29.93704861 515.7269029 31.71639669 C515.86485637 36.59507955 515.99811777 41.47388091 516.1305815 46.35271549 C516.27444294 51.62162692 516.42261979 56.89041729 516.57020569 62.15922546 C516.8588293 72.48955875 517.14326586 82.82000325 517.42605288 93.15049781 C517.65664794 101.57375419 517.88843809 109.99697685 518.12106133 118.42017746 C518.78266029 142.38147371 519.44109132 166.34285402 520.0954879 190.30434807 C520.13076644 191.5961007 520.16604499 192.88785334 520.20239258 194.21875 C520.23771445 195.5121133 520.27303633 196.80547659 520.30942857 198.13803272 C520.87875213 218.97765721 521.45552842 239.81706766 522.0358004 260.65638991 C522.63372024 282.13266933 523.22587115 303.60910146 523.81227487 325.08569849 C524.14070951 337.11020837 524.47138551 349.13464616 524.80821419 361.1589241 C526.13166542 408.45586766 527.3615969 455.68043695 527 503 C505.22 503 483.44 503 461 503 C461.32675577 516.05657802 461.32675577 516.05657802 461.65820312 529.11303711 C461.69938354 530.79280196 461.74040852 532.47257063 461.78125 534.15234375 C461.8136377 535.3821698 461.8136377 535.3821698 461.84667969 536.63684082 C462.04860798 545.0973958 462 553.52766057 462 562 C305.58 562 149.16 562 -12 562 C-12 515.98831855 -12 515.98831855 -11.5625 501.25 C-11.51718813 499.58082328 -11.4723627 497.91163329 -11.42797852 496.24243164 C-11.31434342 492.01452665 -11.19446975 487.78682563 -11.07287598 483.55914307 C-10.92590345 478.39799483 -10.7874202 473.23661142 -10.64736938 468.07527161 C-10.43777247 460.3833251 -10.21798436 452.69173375 -10 445 C12.11 445 34.22 445 57 445 C57 437.74 57 430.48 57 423 C57.03666838 418.89077697 57.07926419 414.78369873 57.14512634 410.67512512 C57.16075499 409.61425381 57.17638363 408.5533825 57.19248587 407.46036357 C57.24386736 403.99934774 57.29757102 400.5383724 57.35131836 397.07739258 C57.38924323 394.55594589 57.42702478 392.03449705 57.4646759 389.51304626 C57.55598215 383.42423893 57.64881711 377.33545663 57.7424125 371.24668411 C57.8522741 364.09576502 57.96040149 356.94481999 58.06850214 349.79387411 C58.26229146 336.97885364 58.45772302 324.16385873 58.65405273 311.34887695 C58.84257861 299.04323314 59.02979613 286.73757034 59.21557617 274.43188477 C59.41940623 260.93073135 59.62398144 247.42958959 59.82977968 233.92846602 C59.85198484 232.47169125 59.87418986 231.01491648 59.89639473 229.55814171 C59.90731046 228.84208265 59.91822619 228.12602358 59.9294727 227.38826576 C60.00451823 222.46268972 60.07909329 217.5371067 60.15348625 212.61152077 C60.68054082 177.73887069 61.29187941 142.86952699 62 108 C40.55 108 19.1 108 -3 108 C-2.54097696 82.20557906 -2.54097696 82.20557906 -2.33789062 71.2265625 C-2.19923905 63.72953733 -2.06160405 56.23250298 -1.92993164 48.73535156 C-1.82373475 42.69230155 -1.71305492 36.64934888 -1.59924126 30.60643768 C-1.55657076 28.29875343 -1.51552691 25.99103852 -1.4761219 23.6832962 C-1.4207358 20.4557605 -1.35961324 17.22838136 -1.29711914 14.00097656 C-1.28201294 13.04288086 -1.26690674 12.08478516 -1.25134277 11.09765625 C-1.2331398 10.21708557 -1.21493683 9.33651489 -1.19618225 8.42926025 C-1.18235536 7.66601566 -1.16852846 6.90277107 -1.15428257 6.11639786 C-1 4 -1 4 0 0 Z " fill="#269A2B" transform="translate(799,45)"/>
<path d="M0 0 C148.83 0 297.66 0 451 0 C462 124 462 124 464 153 C464.73144014 159.47599802 464.73144014 159.47599802 465.52246094 165.94482422 C466.42362616 173.24734653 466.89745341 180.59631485 467.43261719 187.93286133 C467.62713687 190.59170835 467.82884586 193.24994584 468.03125 195.90820312 C468.15927573 197.62757283 468.28689494 199.34697286 468.4140625 201.06640625 C468.47340973 201.84673721 468.53275696 202.62706818 468.59390259 203.43104553 C468.6743129 204.54907814 468.6743129 204.54907814 468.75634766 205.68969727 C468.80360992 206.33125259 468.85087219 206.97280792 468.89956665 207.63380432 C469.04610624 211.08625651 469 214.54443927 469 218 C447.55 218 426.1 218 404 218 C402.22677416 199.67666627 400.52877884 181.34534612 399 163 C366.825 162.505 366.825 162.505 334 162 C333.34 154.20375 332.68 146.4075 332 138.375 C331.79117187 135.92368652 331.58234375 133.47237305 331.3671875 130.94677734 C331.20292681 128.99318072 331.03885184 127.03956846 330.875 125.0859375 C330.78863281 124.08022705 330.70226563 123.0745166 330.61328125 122.03833008 C330.53207031 121.06452393 330.45085937 120.09071777 330.3671875 119.08740234 C330.29612793 118.24801117 330.22506836 117.40862 330.15185547 116.54379272 C329.98211934 113.70047383 330 110.84838071 330 108 C265.65 108 201.3 108 135 108 C135.33 109.98 135.66 111.96 136 114 C136.20923258 116.58575017 136.39051458 119.16090853 136.53515625 121.75 C136.57813339 122.48516846 136.62111053 123.22033691 136.66539001 123.9777832 C136.7552046 125.53083084 136.84335438 127.08397556 136.92993164 128.63720703 C137.0605651 130.96551395 137.19885374 133.29327545 137.33789062 135.62109375 C137.42494765 137.14320244 137.51154963 138.66533725 137.59765625 140.1875 C137.65857201 141.19925293 137.65857201 141.19925293 137.72071838 142.23144531 C138.09666349 149.17874222 138 156.00412757 138 163 C116.88 163 95.76 163 74 163 C75.1586214 193.70346716 76.58495619 224.38246143 78.1640625 255.06640625 C78.23781239 256.49945579 78.23781239 256.49945579 78.31305218 257.96145582 C78.92265626 269.79821292 79.53677442 281.63473414 80.15249228 293.4711746 C80.68430853 303.69681838 81.21298093 313.92262407 81.74146581 324.14844048 C82.82429451 345.09913492 83.91124235 366.04961277 85 387 C117.67 387.495 117.67 387.495 151 388 C155.53886629 406.15546516 153.92212548 425.31684158 155 444 C198.89 444.33 242.78 444.66 288 445 C286.9634136 426.4515215 286.9634136 426.4515215 285 408 C285 401.4 285 394.8 285 388 C306.78 388 328.56 388 351 388 C350.67 386.68 350.34 385.36 350 384 C349.83640093 382.4454197 349.70969919 380.88671131 349.61108398 379.32666016 C349.55109726 378.40535309 349.49111053 377.48404602 349.42930603 376.53482056 C349.36884598 375.5462204 349.30838593 374.55762024 349.24609375 373.5390625 C349.18092056 372.51573822 349.11574738 371.49241394 349.04859924 370.43807983 C348.91158146 368.27458577 348.77636683 366.11097686 348.64282227 363.94726562 C348.43868948 360.64424669 348.22860669 357.34164729 348.01757812 354.0390625 C347.8850638 351.93491803 347.75289109 349.83075201 347.62109375 347.7265625 C347.55860947 346.7420108 347.49612518 345.75745911 347.43174744 344.74307251 C347.34649559 343.35165543 347.34649559 343.35165543 347.25952148 341.93212891 C347.18410378 340.71778671 347.18410378 340.71778671 347.10716248 339.47891235 C346.98508664 336.65501993 347 333.82652984 347 331 C390.56 331 434.12 331 479 331 C480.30710888 336.88198997 481.32603792 341.96967137 481.85375977 347.86108398 C481.92072052 348.59116669 481.98768127 349.32124939 482.05667114 350.07345581 C482.27423558 352.46383973 482.4831478 354.85488245 482.69140625 357.24609375 C482.84276252 358.94217336 482.99445694 360.63822282 483.14646912 362.33424377 C483.46377981 365.89022044 483.77674891 369.44654574 484.08666992 373.00317383 C484.47710724 377.47954568 484.87850581 381.95484919 485.28343296 386.42993069 C485.59965571 389.9399557 485.90951712 393.45052289 486.21772575 396.96125984 C486.3628816 398.60622203 486.50987367 400.25102361 486.65902901 401.89562798 C487.9574311 416.27532673 488.44368881 430.53590917 489 445 C467.22 445 445.44 445 423 445 C424.31117489 459.97275144 424.31117489 459.97275144 425.6328125 474.94458008 C425.79724886 476.84453148 425.96133401 478.74451333 426.125 480.64453125 C426.21136719 481.60307007 426.29773437 482.56160889 426.38671875 483.54919434 C426.46792969 484.50209351 426.54914062 485.45499268 426.6328125 486.43676758 C426.70387207 487.2472908 426.77493164 488.05781403 426.84814453 488.89289856 C427.07770581 493.58993173 427 498.29736042 427 503 C404.89 503 382.78 503 360 503 C360.99 513.56 361.98 524.12 363 535 C364.125 549.625 364.125 549.625 364.0625 555.8125 C364.04896484 557.58560547 364.04896484 557.58560547 364.03515625 559.39453125 C364.02355469 560.25433594 364.01195312 561.11414063 364 562 C329.62061886 562.02286533 295.24123945 562.04049769 260.86185235 562.05106533 C256.807397 562.05231611 252.75294166 562.05361042 248.69848633 562.05493164 C247.89128265 562.05519395 247.08407897 562.05545626 246.25241458 562.05572652 C233.16483827 562.06008343 220.07726634 562.06797109 206.98969264 562.0771528 C193.57079083 562.08648877 180.15189131 562.09205549 166.73298639 562.09408849 C158.44603469 562.09546384 150.15909534 562.09981505 141.87214743 562.10791647 C136.19731615 562.11318323 130.5224913 562.11480446 124.84765775 562.11350138 C121.56861768 562.11285789 118.28960398 562.11441518 115.01056671 562.11920547 C111.46385969 562.12413537 107.91720677 562.1230009 104.37049866 562.12025452 C103.32285546 562.12316736 102.27521226 562.1260802 101.1958223 562.12908131 C100.25331444 562.12709026 99.31080659 562.12509921 98.33973789 562.12304783 C97.1100136 562.12361741 97.1100136 562.12361741 95.8554464 562.1241985 C94 562 94 562 93 561 C92.76712068 558.34131039 92.59525814 555.70340989 92.46484375 553.0390625 C92.42186661 552.21989349 92.37888947 551.40072449 92.33460999 550.55673218 C92.24409335 548.80649539 92.15599171 547.05613236 92.07006836 545.30566406 C91.94111745 542.69814835 91.80226445 540.09130924 91.66210938 537.484375 C91.57490723 535.77346866 91.48830321 534.06253172 91.40234375 532.3515625 C91.36173325 531.59968658 91.32112274 530.84781067 91.27928162 530.07315063 C90.8504565 521.0322197 91 512.08509204 91 503 C46.45 503 1.9 503 -44 503 C-44.61633418 499.30199491 -45.13017521 496.11672196 -45.27210999 492.45326233 C-45.30714127 491.59688675 -45.34217255 490.74051117 -45.37826538 489.85818481 C-45.41207306 488.93697845 -45.44588074 488.01577209 -45.48071289 487.06665039 C-45.5198732 486.08215408 -45.55903351 485.09765778 -45.59938049 484.08332825 C-45.72750363 480.83823696 -45.850161 477.59296447 -45.97265625 474.34765625 C-46.06061374 472.0861244 -46.14886986 469.82460415 -46.2374115 467.56309509 C-46.42207992 462.82641113 -46.60424092 458.08963989 -46.78442383 453.3527832 C-47.01512857 447.28887832 -47.25033532 441.22515918 -47.48720646 435.16149235 C-47.66940733 430.49206577 -47.85008224 425.82258122 -48.03021049 421.15307426 C-48.11646245 418.91760666 -48.20298375 416.68214943 -48.28978157 414.44670296 C-48.41083015 411.31876891 -48.53003695 408.19077018 -48.64868164 405.06274414 C-48.68451355 404.14356201 -48.72034546 403.22437988 -48.75726318 402.27734375 C-48.93584475 397.51393101 -49.03645511 392.76675282 -49 388 C-49.82463242 388.00222061 -50.64926483 388.00444122 -51.49888611 388.00672913 C-59.25398257 388.02673052 -67.00906661 388.04197335 -74.76418209 388.05181217 C-78.751572 388.05704036 -82.73894067 388.06413684 -86.72631836 388.07543945 C-90.57125114 388.08627061 -94.41616345 388.09227732 -98.26111031 388.09487724 C-99.73118983 388.09673108 -101.20126818 388.10035091 -102.67133904 388.10573006 C-104.72354467 388.11294355 -106.77566467 388.11399081 -108.82788086 388.11352539 C-109.99814316 388.115746 -111.16840546 388.11796661 -112.37413025 388.12025452 C-115 388 -115 388 -116 387 C-116.18458559 384.34493401 -116.30509325 381.71194878 -116.38600159 379.05296326 C-116.41544088 378.20993544 -116.44488017 377.36690763 -116.47521156 376.49833351 C-116.57345376 373.65063704 -116.66474403 370.80275899 -116.75610352 367.95483398 C-116.82480829 365.92154585 -116.89393015 363.88827176 -116.96343994 361.85501099 C-117.15170473 356.31092633 -117.33389274 350.76665664 -117.51489758 345.22233081 C-117.70527917 339.4174079 -117.90069464 333.6126543 -118.09544373 327.80787659 C-118.42232826 318.04170325 -118.74542884 308.27541038 -119.06616211 298.5090332 C-119.4360545 287.24670476 -119.81113794 275.98455894 -120.18923432 264.72250313 C-120.55328884 253.87679947 -120.91427477 243.03099597 -121.27366447 232.1851368 C-121.42630425 227.57908289 -121.5798767 222.97306152 -121.7341938 218.36706352 C-121.91646035 212.92123325 -122.09598291 207.47531884 -122.27348328 202.02933121 C-122.33868408 200.04128741 -122.40476146 198.05327211 -122.47183037 196.06529045 C-122.56403326 193.32753262 -122.65288407 190.58968399 -122.74098206 187.85179138 C-122.76753657 187.08587077 -122.79409109 186.31995016 -122.82145029 185.53081983 C-123.06725481 177.67827723 -123 169.87116366 -123 162 C-101.55 162 -80.1 162 -58 162 C-58.28875 155.20921875 -58.5775 148.4184375 -58.875 141.421875 C-59.05756944 137.10157383 -59.23998935 132.78126738 -59.421875 128.4609375 C-59.7101366 121.61419533 -59.99893021 114.76747869 -60.29101562 107.92089844 C-60.5266518 102.39669083 -60.7597989 96.87238313 -60.99127197 91.34799957 C-61.07969831 89.24781854 -61.1689984 87.1476741 -61.25921631 85.04756927 C-61.38611215 82.09007534 -61.50980695 79.13246265 -61.6328125 76.17480469 C-61.67021545 75.3202771 -61.70761841 74.46574951 -61.74615479 73.58532715 C-62.01343164 67.03968346 -62 60.56801065 -62 54 C-40.55 54 -19.1 54 3 54 C2.505 52.02 2.505 52.02 2 50 C1.01 25.25 1.01 25.25 0 0 Z " fill="#F2C01B" transform="translate(1506,45)"/>
<path d="M0 0 C63.69 0 127.38 0 193 0 C191.42857143 44 191.42857143 44 190 54 C211.45 54 232.9 54 255 54 C254.03435142 79.10686309 253.06767201 104.21251152 251.9375 129.3125 C251.89747864 130.2147229 251.85745728 131.1169458 251.81622314 132.04650879 C251.70116546 134.63136483 251.58345118 137.21608592 251.46484375 139.80078125 C251.43260208 140.52914688 251.40036041 141.25751251 251.36714172 142.00794983 C251.0387719 149.01981995 250.50069627 155.99025216 250 163 C271.45 163 292.9 163 315 163 C315 173.93548932 314.90614277 184.78626489 314.44921875 195.69946289 C314.38981381 197.17977243 314.33071081 198.66009412 314.2718811 200.14042664 C314.11376658 204.09809878 313.95151389 208.05559094 313.78842545 212.01306081 C313.61778803 216.17156624 313.45108475 220.3302295 313.28393555 224.48887634 C312.96792652 232.33660107 312.64846152 240.18418101 312.32770443 248.03171295 C311.89368271 258.65534476 311.46510183 269.27919605 311.03619003 279.90303516 C310.36186002 296.60220434 309.68034918 313.30107246 309 330 C330.78 330 352.56 330 375 330 C375 337.50049074 374.99963864 344.95219451 374.74047852 352.43945312 C374.7128241 353.28853745 374.68516968 354.13762177 374.65667725 355.01243591 C374.56628749 357.76878533 374.47274953 360.52501617 374.37890625 363.28125 C374.31393237 365.22692508 374.24906935 367.17260387 374.18431091 369.11828613 C374.04872835 373.17607595 373.91152166 377.2338068 373.77319336 381.29150391 C373.59721408 386.45868272 373.42575909 391.62600024 373.25558567 396.79337311 C373.12288196 400.80518363 372.98752612 404.81690151 372.85142326 408.82859802 C372.78718312 410.73250965 372.72379344 412.63645019 372.66131783 414.54042053 C372.57323874 417.21389612 372.48150247 419.88722406 372.38891602 422.56054688 C372.36445908 423.32560043 372.34000214 424.09065399 372.31480408 424.87889099 C372.07498579 431.61780302 371.51878714 438.25576722 371 445 C393.11 445 415.22 445 438 445 C438 470.60030665 438 470.60030665 437.8515625 479.7734375 C437.82538345 481.41561752 437.82538345 481.41561752 437.79867554 483.0909729 C437.76107451 485.38097917 437.72239172 487.67096795 437.68261719 489.9609375 C437.64475043 492.20470342 437.60983102 494.44852138 437.578125 496.69238281 C437.26965079 518.51050642 436.0909765 540.18047001 435 562 C345.57 562 256.14 562 164 562 C164 555.17234452 164.04880345 548.44691271 164.41087341 541.64472961 C164.45508692 540.77117881 164.49930043 539.89762802 164.54485375 538.99760598 C164.69186034 536.10674001 164.842862 533.21609756 164.99389648 530.32543945 C165.10088083 528.23831357 165.20762485 526.15117535 165.31414795 524.06402588 C165.6028801 518.42161944 165.89517477 512.77940285 166.18828845 507.13722253 C166.43297816 502.42033438 166.67584361 497.70335304 166.91869217 492.98636979 C167.49154583 481.85951639 168.06721264 470.73281106 168.64477539 459.60620117 C169.24013944 448.13593313 169.83134034 436.66545605 170.42040008 425.19486266 C170.92696296 415.33291463 171.43580873 405.4710863 171.946549 395.60935372 C172.25129163 389.72508253 172.55524086 383.84077327 172.85711479 377.95635414 C173.14092468 372.42647726 173.42760225 366.89675629 173.71647644 361.36714172 C173.82189191 359.34033583 173.92631568 357.31347808 174.02966499 355.28656578 C174.17111224 352.51566811 174.31618 349.74498241 174.46214294 346.97431946 C174.52197433 345.77737055 174.52197433 345.77737055 174.58301443 344.55624086 C174.62332283 343.8051329 174.66363123 343.05402494 174.70516109 342.28015614 C174.73819676 341.64211325 174.77123243 341.00407037 174.80526918 340.34669286 C175.09237684 336.88677061 175.56937447 333.44500427 176 330 C154.22 330 132.44 330 110 330 C110 319.79368195 110.11025689 309.7749514 110.71850586 299.61425781 C110.79608885 298.26194953 110.87327017 296.90961817 110.9500885 295.55726624 C111.15674168 291.93950528 111.36901348 288.32209518 111.58250117 284.70473194 C111.80674414 280.88958008 112.02591252 277.07413623 112.2457428 273.25872803 C112.61509556 266.8606173 112.98787333 260.4627139 113.36303711 254.06494141 C113.84264494 245.88575639 114.31654826 237.70625128 114.78865719 229.5266304 C115.19740672 222.44555125 115.6087727 215.36462443 116.02055287 208.28372097 C116.15151941 206.02981166 116.28213546 203.77588225 116.41270256 201.52194977 C116.61886181 197.96601068 116.82666679 194.41017113 117.03568077 190.85439873 C117.1473929 188.94846571 117.25767267 187.04244891 117.3678894 185.13642883 C117.4365773 183.97348801 117.5052652 182.81054718 117.57603455 181.61236572 C117.6341075 180.61917454 117.69218046 179.62598335 117.75201321 178.60269547 C118.11030574 173.39750345 118.56670948 168.1994862 119 163 C97.55 163 76.1 163 54 163 C53.62875 170.486875 53.62875 170.486875 53.25 178.125 C52.33293268 195.95922372 51.22227442 213.78049848 50.07206726 231.600914 C49.93805833 233.67884259 49.8046108 235.75680662 49.67126465 237.83477783 C49.41719721 241.78973786 49.16007453 245.74449566 48.90234375 249.69921875 C48.82634445 250.87819229 48.75034515 252.05716583 48.67204285 253.27186584 C48.59843033 254.39088791 48.52481781 255.50990997 48.44897461 256.6628418 C48.38616806 257.62522263 48.32336151 258.58760345 48.25865173 259.57914734 C47.89485337 264.39063882 47.43685538 269.19459087 47 274 C25.22 274 3.44 274 -19 274 C-19.26804443 278.55530518 -19.53608887 283.11061035 -19.81225586 287.80395508 C-20.94242749 306.63275177 -22.25657671 325.44765986 -23.58844185 344.26309776 C-24.01513051 350.29112903 -24.43902407 356.31935513 -24.86253357 362.34761047 C-25.98918218 378.37870934 -27.11912766 394.40957537 -28.25109094 410.44029981 C-28.9993657 421.03740591 -29.74605482 431.63462114 -30.48982376 442.23204452 C-30.84095021 447.23352421 -31.19310434 452.23492659 -31.54785347 457.23615074 C-33.42535817 482.80195044 -33.42535817 482.80195044 -34.70855808 508.40214825 C-35.04564214 517.64094143 -36.09064711 526.79948838 -37 536 C-37.66 544.58 -38.32 553.16 -39 562 C-105.99 562 -172.98 562 -242 562 C-239.44992566 518.64873619 -239.44992566 518.64873619 -237.50390625 503.6015625 C-236.59753304 495.97099982 -236.19558155 488.28260201 -235.69726562 480.61694336 C-235.62056641 479.46073486 -235.54386719 478.30452637 -235.46484375 477.11328125 C-235.399021 476.07985596 -235.33319824 475.04643066 -235.26538086 473.98168945 C-234.99548376 470.94925775 -234.50887339 468.00034397 -234 465 C-233.87931504 463.60232511 -233.78290796 462.20218901 -233.71875 460.80078125 C-233.68136719 460.06666016 -233.64398438 459.33253906 -233.60546875 458.57617188 C-233.53461143 457.05536383 -233.46430723 455.53452992 -233.39453125 454.01367188 C-233.2301338 450.8022528 -233.02231466 448.06694397 -232 445 C-209.89 445 -187.78 445 -165 445 C-164.54625 438.07 -164.0925 431.14 -163.625 424 C-161.88039956 397.67488754 -161.88039956 397.67488754 -160.875 385.5625 C-160.79975098 384.64404297 -160.72450195 383.72558594 -160.64697266 382.77929688 C-160.36859583 379.54387001 -160.06592818 376.37582308 -159.50439453 373.17480469 C-158.96159877 369.75829159 -158.70599982 366.40224474 -158.5 362.94921875 C-158.4390918 361.96185478 -158.4390918 361.96185478 -158.37695312 360.95454407 C-158.24834494 358.86569672 -158.12378646 356.77663822 -158 354.6875 C-157.87590175 352.60909667 -157.75081116 350.5307723 -157.62304688 348.45259094 C-157.50675971 346.55927606 -157.39389904 344.66575162 -157.28125 342.7722168 C-156.96311502 338.50528667 -156.47251149 334.25260338 -156 330 C-133.89 330 -111.78 330 -89 330 C-89 326.04 -89 322.08 -89 318 C-88.84068373 314.90546505 -88.6572113 311.83286217 -88.4140625 308.74609375 C-88.35221771 307.92029312 -88.29037292 307.09449249 -88.22665405 306.2436676 C-88.09596126 304.51180946 -87.96310415 302.78011333 -87.828125 301.04858398 C-87.62729648 298.46702024 -87.4341752 295.88496899 -87.2421875 293.30273438 C-86.60498345 284.87854042 -85.86705058 276.47656339 -84.94921875 268.078125 C-84.12239424 260.49493962 -83.57440208 252.93194075 -83.1875 245.3125 C-81.64625887 217.50982027 -79.20175378 189.75368576 -77 162 C-55.22 162 -33.44 162 -11 162 C-11 157.71 -11 153.42 -11 149 C-10.83030929 145.58671057 -10.63540046 142.19469548 -10.37890625 138.7890625 C-10.28258156 137.44320572 -10.28258156 137.44320572 -10.18431091 136.07015991 C-10.04948006 134.19977032 -9.91243289 132.32953921 -9.77319336 130.45947266 C-9.56139041 127.61007266 -9.35731263 124.7601945 -9.15429688 121.91015625 C-9.02128303 120.0780923 -8.88783495 118.2460598 -8.75390625 116.4140625 C-8.6934462 115.57227448 -8.63298615 114.73048645 -8.57069397 113.8631897 C-8.22066782 109.20457759 -7.66557757 104.62603632 -7 100 C-6.84041699 97.82870387 -6.71020327 95.65510074 -6.60546875 93.48046875 C-6.53900146 92.1754541 -6.47253418 90.87043945 -6.40405273 89.52587891 C-6.35170975 88.47173798 -6.35170975 88.47173798 -6.29830933 87.39630127 C-5.45616564 70.60955499 -4.35802947 53.84031199 -3.2081604 37.07217407 C-3.02800986 34.44494985 -2.8489495 31.81765064 -2.67098999 29.1902771 C-2.41800912 25.46255817 -2.16087347 21.73515026 -1.90234375 18.0078125 C-1.82634949 16.88422836 -1.75035522 15.76064423 -1.67205811 14.60301208 C-1.59844055 13.55726517 -1.524823 12.51151825 -1.44897461 11.43408203 C-1.38616806 10.52562531 -1.32336151 9.61716858 -1.25865173 8.68118286 C-0.9778806 5.77071043 -0.4807 2.88420002 0 0 Z " fill="#D03535" transform="translate(284,45)"/>
<path d="M0 0 C0.33 0 0.66 0 1 0 C3.75717802 52.51336384 1.93425486 103.48349526 -3.48013675 155.76302648 C-4.43187576 164.97314051 -5.32476508 174.18874309 -6.21549094 183.40492415 C-7.60127112 197.72907588 -9.01545531 212.05015501 -10.4777832 226.36669922 C-10.5488862 227.06537802 -10.6199892 227.76405682 -10.69324684 228.4839077 C-10.89336448 230.44762358 -11.09506361 232.4111781 -11.29682922 234.37472534 C-11.40912023 235.4680612 -11.52141123 236.56139706 -11.63710499 237.6878643 C-12.05075626 241.46325141 -12.52891851 245.23134806 -13 249 C-182.62 249 -352.24 249 -527 249 C-529.29918589 224.85854817 -529.29918589 224.85854817 -530.14501953 213.04663086 C-530.24364623 211.69354902 -530.34246901 210.34048146 -530.44146729 208.98742676 C-530.70395071 205.39103449 -530.96345327 201.79443378 -531.2220788 198.19776225 C-531.43998192 195.17064406 -531.65927842 192.14362734 -531.87850654 189.11660486 C-532.39573136 181.97381453 -532.91033614 174.83083877 -533.42333984 167.68774414 C-533.9498155 160.35785858 -534.48129821 153.02834763 -535.01510537 145.69899267 C-535.47683811 139.35640572 -535.93521795 133.0135822 -536.39101112 126.67056566 C-536.66176664 122.90327224 -536.93378771 119.13608166 -537.2091713 115.36912346 C-537.46748222 111.83399493 -537.72157185 108.29858669 -537.97257233 104.76293182 C-538.10805533 102.86871004 -538.24773723 100.97479 -538.38760376 99.08088684 C-538.46885498 97.92517181 -538.5501062 96.76945679 -538.63381958 95.57872009 C-538.70496538 94.592023 -538.77611118 93.60532591 -538.84941292 92.5887289 C-539.06727155 87.39681228 -539 82.19648541 -539 77 C-382.58 77 -226.16 77 -65 77 C-65.33 71.39 -65.66 65.78 -66 60 C-66.07111507 56.37588449 -66.12025585 52.77415195 -66.09765625 49.15234375 C-66.09664917 48.34381958 -66.09564209 47.53529541 -66.09460449 46.70227051 C-66.08950811 43.78066518 -66.07555154 40.85908062 -66.0625 37.9375 C-66.041875 31.358125 -66.02125 24.77875 -66 18 C-44.22 18 -22.44 18 0 18 C0 12.06 0 6.12 0 0 Z " fill="#044407" transform="translate(1326,530)"/>
<path d="M0 0 C0.33 0 0.66 0 1 0 C1.08564209 1.18029785 1.17128418 2.3605957 1.25952148 3.57666016 C1.57914353 7.97139955 1.9024317 12.36586298 2.22680664 16.76025391 C2.36647346 18.65926953 2.50515677 20.55835777 2.64282227 22.45751953 C2.84130119 25.19323263 3.04335951 27.92866186 3.24609375 30.6640625 C3.3065538 31.50804596 3.36701385 32.35202942 3.42930603 33.22158813 C3.51928612 34.42215347 3.51928612 34.42215347 3.61108398 35.64697266 C3.66215805 36.34424469 3.71323212 37.04151672 3.76585388 37.75991821 C4.05458327 40.52219953 4.54340974 43.26045842 5 46 C5.33 54.58 5.66 63.16 6 72 C-15.78 72 -37.56 72 -60 72 C-58.68804293 88.0050056 -58.68804293 88.0050056 -57.3671875 104.00927734 C-57.20280602 106.03480487 -57.03872396 108.06035672 -56.875 110.0859375 C-56.78863281 111.11436768 -56.70226563 112.14279785 -56.61328125 113.20239258 C-56.37848661 116.13383165 -56.17994919 119.06473302 -56 122 C-55.93781784 122.80637405 -55.87563568 123.61274811 -55.81156921 124.44355774 C-55.46392917 132.25219217 -57.69017367 139.36988607 -59.83203125 146.80859375 C-60.22955058 148.22494555 -60.62590621 149.64162441 -61.02116394 151.05860901 C-62.05914675 154.76802409 -63.11244263 158.47291295 -64.16925049 162.17700195 C-65.23458239 165.92077577 -66.28576285 169.66851388 -67.33789062 173.41601562 C-68.88641186 178.92731073 -70.44324623 184.43614528 -72.00708008 189.94311523 C-73.49289496 195.1846202 -74.95011411 200.43281134 -76.3742218 205.69140625 C-77.35773937 209.31975656 -78.36660815 212.9409997 -79.375 216.5625 C-79.80990298 218.12630009 -80.24479861 219.69010224 -80.6796875 221.25390625 C-80.89850586 222.04039551 -81.11732422 222.82688477 -81.34277344 223.63720703 C-82.17723222 226.63716697 -83.01066116 229.63741232 -83.84390259 232.63771057 C-84.45718025 234.84582678 -85.07062481 237.05389656 -85.68408203 239.26196289 C-86.50200763 242.20634777 -87.31929238 245.1509087 -88.13574219 248.09570312 C-91.07845502 258.70612796 -94.03946533 269.31133448 -97.02197266 279.91064453 C-97.51531299 281.66529495 -98.00779974 283.42018554 -98.49951172 285.17529297 C-99.22171135 287.75282297 -99.94649588 290.32961325 -100.671875 292.90625 C-100.89164001 293.69253784 -101.11140503 294.47882568 -101.33782959 295.28894043 C-102.88592604 300.77185209 -102.88592604 300.77185209 -104 303 C-231.05 303 -358.1 303 -489 303 C-483.46254971 263.13035791 -483.46254971 263.13035791 -480.42822266 245.44580078 C-477.74406261 229.69084805 -475.21038792 213.91076025 -472.72263908 198.12373924 C-471.87533221 192.75097501 -471.01741221 187.38038923 -470.1340332 182.01342773 C-465.70361115 155.04216435 -462.96872234 129.33281057 -464 102 C-464.33 92.1 -464.66 82.2 -465 72 C-442.56 72 -420.12 72 -397 72 C-396.01 91.14 -395.02 110.28 -394 130 C-260.35 130.495 -260.35 130.495 -124 131 C-125.3104049 107.9168461 -125.3104049 107.9168461 -128 85 C-128 80.71 -128 76.42 -128 72 C-105.89 72 -83.78 72 -61 72 C-62.31176794 56.65316547 -62.31176794 56.65316547 -63.6328125 41.30712891 C-63.79720728 39.36363485 -63.9612901 37.42011437 -64.125 35.4765625 C-64.21136719 34.49131592 -64.29773437 33.50606934 -64.38671875 32.4909668 C-64.46792969 31.51764404 -64.54914063 30.54432129 -64.6328125 29.54150391 C-64.70387207 28.71099518 -64.77493164 27.88048645 -64.84814453 27.02481079 C-65.06584798 22.6883734 -65 18.34189867 -65 14 C-43.22 14 -21.44 14 1 14 C0.67 13.34 0.34 12.68 0 12 C-0.07065617 9.95944995 -0.08421976 7.91665743 -0.0625 5.875 C-0.05347656 4.77929688 -0.04445313 3.68359375 -0.03515625 2.5546875 C-0.01775391 1.29011719 -0.01775391 1.29011719 0 0 Z " fill="#695100" transform="translate(1994,476)"/>
<path d="M0 0 C89.43 0 178.86 0 271 0 C274.44728873 32.17469483 274.44728873 32.17469483 275.53393555 44.07446289 C275.66228356 45.46288616 275.7908101 46.85129294 275.91949463 48.23968506 C276.25796113 51.89703137 276.59393294 55.55460228 276.92926002 59.2122376 C277.28422845 63.07988512 277.64140593 66.9473288 277.99824524 70.81480408 C278.59377496 77.27280725 279.18768241 83.73095793 279.78051758 90.18920898 C280.46523787 97.64825678 281.15245635 105.10707131 281.84097642 112.56576926 C282.50809235 119.79305546 283.1736586 127.02048351 283.83844948 134.24798393 C284.11987112 137.30737091 284.4018048 140.36671005 284.68414879 143.42601204 C285.01458654 147.00732181 285.34365917 150.58875445 285.67166138 154.17028809 C285.84964103 156.11018598 286.02896677 158.04996022 286.20832825 159.98973083 C286.31337677 161.13978607 286.41842529 162.28984131 286.5266571 163.4747467 C286.66461213 164.97572198 286.66461213 164.97572198 286.80535412 166.50702 C287 169 287 169 287 172 C202.19 172 117.38 172 30 172 C25.46159473 150.44257498 25.46159473 150.44257498 24 141 C23.53497024 138.0751343 23.06598454 135.15090167 22.59765625 132.2265625 C22.34434643 130.6432379 22.09109189 129.05990446 21.83789062 127.4765625 C21.71003174 126.67766602 21.58217285 125.87876953 21.45043945 125.05566406 C21.19241485 123.43899135 20.93557322 121.82212937 20.67993164 120.20507812 C19.23295845 111.06161655 17.67362833 101.99253116 15.64624023 92.95703125 C14.22821877 86.46852504 13.27478791 79.90134971 12.31640625 73.33203125 C11.02951094 64.53217502 9.62871078 55.81201047 7.81640625 47.1015625 C6.56318435 40.9550293 5.54824081 34.76384875 4.48950195 28.58154297 C3.25533214 21.39603809 1.92381591 14.23534147 0.515625 7.08203125 C0 4 0 4 0 0 Z " fill="#730909" transform="translate(448,607)"/>
<path d="M0 0 C42.57 0 85.14 0 129 0 C130.77375 19.861875 132.5475 39.72375 134.375 60.1875 C134.93106934 66.39715576 135.48713867 72.60681152 136.06005859 79.00463867 C136.74926758 86.74475098 136.74926758 86.74475098 137.07388306 90.39863586 C137.29523382 92.88412287 137.51769268 95.36951137 137.74111938 97.85481262 C139.10478383 113.03413329 140.35113834 128.21131734 141.3314724 143.42042828 C141.82475666 150.97322603 142.56598207 158.43618432 143.52246094 165.94482422 C144.42362616 173.24734653 144.89745341 180.59631485 145.43261719 187.93286133 C145.62713687 190.59170835 145.82884586 193.24994584 146.03125 195.90820312 C146.15927573 197.62757283 146.28689494 199.34697286 146.4140625 201.06640625 C146.47340973 201.84673721 146.53275696 202.62706818 146.59390259 203.43104553 C146.6743129 204.54907814 146.6743129 204.54907814 146.75634766 205.68969727 C146.80360992 206.33125259 146.85087219 206.97280792 146.89956665 207.63380432 C147.04610624 211.08625651 147 214.54443927 147 218 C125.55 218 104.1 218 82 218 C80.22677416 199.67666627 78.52877884 181.34534612 77 163 C44.825 162.505 44.825 162.505 12 162 C11.34 154.20375 10.68 146.4075 10 138.375 C9.68675781 134.69802979 9.68675781 134.69802979 9.3671875 130.94677734 C9.20292681 128.99318072 9.03885184 127.03956846 8.875 125.0859375 C8.78863281 124.08022705 8.70226563 123.0745166 8.61328125 122.03833008 C8.49146484 120.57762085 8.49146484 120.57762085 8.3671875 119.08740234 C8.29612793 118.24801117 8.22506836 117.40862 8.15185547 116.54379272 C7.98211934 113.70047383 8 110.84838071 8 108 C-56.35 108 -120.7 108 -187 108 C-190 62 -190 62 -190 53 C-126.31 53 -62.62 53 3 53 C2.16373822 37.72200089 2.16373822 37.72200089 0.66210938 22.54882812 C-0.18555646 14.90708874 0 7.87178627 0 0 Z " fill="#F1BF1B" transform="translate(1828,45)"/>
<path d="M0 0 C66.99 0 133.98 0 203 0 C208.71354043 21.71145365 208.71354043 21.71145365 210.5625 30.125 C210.98392224 32.00661188 211.40580082 33.88812161 211.828125 35.76953125 C212.02857422 36.66623535 212.22902344 37.56293945 212.43554688 38.48681641 C214.47208888 47.55436113 216.65323199 56.58775667 218.8515625 65.6171875 C219.54693888 68.47394279 220.24227313 71.33070832 220.9375 74.1875 C221.11415192 74.91321198 221.29080383 75.63892395 221.47280884 76.3866272 C223.75064262 85.75180671 225.96446027 95.12748305 228.06616211 104.53393555 C229.9442946 112.88024134 231.97310923 121.18892864 234 129.5 C236.37732346 139.2606561 238.74589067 149.02246302 241 158.8125 C241.20753906 159.70066406 241.41507813 160.58882812 241.62890625 161.50390625 C241.81324219 162.3134375 241.99757813 163.12296875 242.1875 163.95703125 C242.34605469 164.64772705 242.50460937 165.33842285 242.66796875 166.05004883 C243 168 243 168 243 172 C179.31 172 115.62 172 50 172 C49.34 169.03 48.68 166.06 48 163 C47.55130521 161.30426302 47.08486104 159.61297369 46.58984375 157.93017578 C46.32703613 157.03217255 46.06422852 156.13416931 45.79345703 155.20895386 C45.51099121 154.25570221 45.22852539 153.30245056 44.9375 152.3203125 C44.63440918 151.28963654 44.33131836 150.25896057 44.01904297 149.197052 C43.01706837 145.79672385 42.00946003 142.39811317 41 139 C40.6498584 137.82111206 40.2997168 136.64222412 39.93896484 135.4276123 C37.69139066 127.86977693 35.43193899 120.31553346 33.16601562 112.76318359 C32.3874019 110.16785888 31.61009203 107.57214944 30.83398438 104.97607422 C26.7597907 91.34854632 22.63561608 77.74304738 18.2845459 64.20101929 C16.19452878 57.67517548 14.27868898 51.11787987 12.5 44.5 C10.00811989 35.39315478 7.29843868 26.38593409 4.30859375 17.4296875 C3.89867187 16.18251953 3.89867187 16.18251953 3.48046875 14.91015625 C3.24223389 14.19996338 3.00399902 13.48977051 2.75854492 12.75805664 C1.60474779 8.5628696 0.85329322 4.26646608 0 0 Z " fill="#730909" transform="translate(42,607)"/>
<path d="M0 0 C65.34 0 130.68 0 198 0 C200.29938272 67.83179012 200.29938272 67.83179012 200.125 90.1875 C200.08375 98.045625 200.0425 105.90375 200 114 C177.89 114 155.78 114 133 114 C133.33 121.26 133.66 128.52 134 136 C134 147.88 134 159.76 134 172 C89.45 172 44.9 172 -1 172 C-1.04030303 136.72588883 -1.04030303 136.72588883 -1.04882812 121.77539062 C-1.05472762 111.51277152 -1.06160569 101.25016072 -1.07543945 90.98754883 C-1.0855162 83.50842176 -1.09188376 76.02930153 -1.09408849 68.55016786 C-1.09537394 64.60281007 -1.098318 60.65547178 -1.10573006 56.70812035 C-1.11269724 52.96611213 -1.11457669 49.22413078 -1.11310768 45.4821167 C-1.11349906 43.50848541 -1.1187832 41.5348568 -1.12442017 39.56123352 C-1.10996493 26.34151882 -0.49049053 13.24324418 0 0 Z " fill="#000000" transform="translate(991,376)"/>
<path d="M0 0 C42.9 0 85.8 0 130 0 C130 18.15 130 36.3 130 55 C151.45 55 172.9 55 195 55 C195.66464431 67.62824197 196.13194636 80.06854391 196.0625 92.6875 C196.041875 98.070625 196.02125 103.45375 196 109 C174.55 109 153.1 109 131 109 C131 127.48 131 145.96 131 165 C87.77 165 44.54 165 0 165 C0 110.55 0 56.1 0 0 Z " fill="#000000" transform="translate(991,98)"/>
<path d="M0 0 C21.78 0 43.56 0 66 0 C64.85117953 25.27405042 64.85117953 25.27405042 64.24389648 33.03466797 C64.17547546 33.94496262 64.10705444 34.85525726 64.03656006 35.7931366 C63.81784221 38.69306568 63.59455845 41.59262074 63.37109375 44.4921875 C63.21529226 46.54580532 63.05978578 48.59944555 62.90455627 50.65310669 C62.50142206 55.97625879 62.09436773 61.29910356 61.68640137 66.62188721 C61.1943955 73.05234844 60.70742707 79.48319301 60.2195816 85.91397095 C59.48350983 95.60960759 58.74117411 105.30474601 58 115 C80.11 115 102.22 115 125 115 C125 122.51506407 124.90824487 129.2624982 124.125 136.625 C122.89456079 149.0661076 121.95884471 161.53501882 121 174 C54.01 174 -12.98 174 -82 174 C-79.44992566 130.64873619 -79.44992566 130.64873619 -77.50390625 115.6015625 C-76.59753304 107.97099982 -76.19558155 100.28260201 -75.69726562 92.61694336 C-75.62056641 91.46073486 -75.54386719 90.30452637 -75.46484375 89.11328125 C-75.36610962 87.56314331 -75.36610962 87.56314331 -75.26538086 85.98168945 C-74.99548376 82.94925775 -74.50887339 80.00034397 -74 77 C-73.87931504 75.60232511 -73.78290796 74.20218901 -73.71875 72.80078125 C-73.66267578 71.69959961 -73.66267578 71.69959961 -73.60546875 70.57617188 C-73.53461143 69.05536383 -73.46430723 67.53452992 -73.39453125 66.01367188 C-73.2301338 62.8022528 -73.02231466 60.06694397 -72 57 C-49.89 57 -27.78 57 -5 57 C-4.096014 42.73138013 -4.096014 42.73138013 -3.20556641 28.46191406 C-3.08804702 26.64645311 -2.97007453 24.83102142 -2.8515625 23.015625 C-2.79701904 22.10538574 -2.74247559 21.19514648 -2.6862793 20.25732422 C-2.22553395 13.32962325 -1.15591983 6.93551898 0 0 Z " fill="#D03535" transform="translate(124,433)"/>
<path d="M0 0 C21.45 0 42.9 0 65 0 C67.3002548 35.65394946 67.3002548 35.65394946 67.86962891 50.48168945 C67.93857344 52.20088954 68.00784516 53.92007653 68.07740784 55.63925171 C68.26056429 60.18999746 68.43904129 64.74091408 68.61629152 69.29189324 C68.8047353 74.11340692 68.9971015 78.93476462 69.18881226 83.75614929 C69.50915614 91.82813044 69.82634211 99.90023089 70.14160156 107.97241211 C70.50409636 117.25290689 70.87196223 126.53317742 71.24258292 135.81335098 C71.60252416 144.82980236 71.95842086 153.84640931 72.312603 162.86308861 C72.46197542 166.66368176 72.61275984 170.46421477 72.76475906 174.26470375 C72.94367732 178.7423799 73.11901861 183.22018312 73.29177666 187.69810104 C73.35505703 189.32413522 73.41949586 190.95012488 73.48528862 192.57605934 C73.935322 203.72305486 74.0723399 214.84412919 74 226 C65.41194133 226.02269088 56.82389915 226.04091657 48.23581791 226.05181217 C44.248428 226.05704036 40.26105933 226.06413684 36.27368164 226.07543945 C32.42874886 226.08627061 28.58383655 226.09227732 24.73888969 226.09487724 C23.26881017 226.09673108 21.79873182 226.10035091 20.32866096 226.10573006 C18.27645533 226.11294355 16.22433533 226.11399081 14.17211914 226.11352539 C13.00185684 226.115746 11.83159454 226.11796661 10.62586975 226.12025452 C8 226 8 226 7 225 C6.81541441 222.34493401 6.69490675 219.71194878 6.61399841 217.05296326 C6.58455912 216.20993544 6.55511983 215.36690763 6.52478844 214.49833351 C6.42654624 211.65063704 6.33525597 208.80275899 6.24389648 205.95483398 C6.17519171 203.92154585 6.10606985 201.88827176 6.03656006 199.85501099 C5.84829527 194.31092633 5.66610726 188.76665664 5.48510242 183.22233081 C5.29472083 177.4174079 5.09930536 171.6126543 4.90455627 165.80787659 C4.57767174 156.04170325 4.25457116 146.27541038 3.93383789 136.5090332 C3.5639455 125.24670476 3.18886206 113.98455894 2.81076568 102.72250313 C2.44671116 91.87679947 2.08572523 81.03099597 1.72633553 70.1851368 C1.57369575 65.57908289 1.4201233 60.97306152 1.2658062 56.36706352 C1.08353965 50.92123325 0.90401709 45.47531884 0.72651672 40.02933121 C0.66131592 38.04128741 0.59523854 36.05327211 0.52816963 34.06529045 C0.43596674 31.32753262 0.34711593 28.58968399 0.25901794 25.85179138 C0.23246343 25.08587077 0.20590891 24.31995016 0.17854971 23.53081983 C-0.06725481 15.67827723 0 7.87116366 0 0 Z " fill="#9C7803" transform="translate(1383,207)"/>
<path d="M0 0 C21.12 0 42.24 0 64 0 C68 37.33333333 68 37.33333333 68 54 C46.88 54 25.76 54 4 54 C4.99 63.9 4.99 63.9 6 74 C6.99 90.83 6.99 90.83 8 108 C-56.35 108 -120.7 108 -187 108 C-190 62 -190 62 -190 53 C-126.31 53 -62.62 53 3 53 C2.16373822 37.72200089 2.16373822 37.72200089 0.66210938 22.54882812 C-0.18555646 14.90708874 0 7.87178627 0 0 Z " fill="#9D7903" transform="translate(1828,45)"/>
<path d="M0 0 C22.11 0 44.22 0 67 0 C65.68 18.81 64.36 37.62 63 57 C84.78 57 106.56 57 129 57 C127.84225892 81.31256276 127.84225892 81.31256276 126.99755859 93.08232117 C126.90652863 94.35645654 126.90652863 94.35645654 126.81365967 95.65633202 C126.75140198 96.52642214 126.68914429 97.39651226 126.625 98.29296875 C126.49413523 100.14470757 126.36344245 101.99645854 126.23291016 103.84822083 C125.96211629 107.68253236 125.68971678 111.516725 125.41601562 115.35083008 C125.06706821 120.23998933 124.72159577 125.12938665 124.37722778 130.01887035 C124.10897579 133.82381718 123.83924055 137.62865771 123.56903076 141.43346596 C123.44108744 143.23658922 123.31351549 145.03973888 123.18634033 146.84291649 C123.00848992 149.36047126 122.82871866 151.87788194 122.6484375 154.39526367 C122.59749939 155.12113174 122.54656128 155.84699982 122.49407959 156.59486389 C122.09823438 162.08015874 121.54786618 167.52133821 121 173 C98.89 173 76.78 173 54 173 C54 156.914449 54 156.914449 54.62670898 149.00048828 C54.69337769 148.10421219 54.76004639 147.2079361 54.82873535 146.28450012 C55.04612783 143.37936315 55.27093967 140.47485733 55.49609375 137.5703125 C55.65104266 135.52443436 55.80558128 133.4785251 55.95973206 131.43258667 C56.28187315 127.1712773 56.60743725 122.91024914 56.93579102 118.64941406 C57.35545253 113.20290193 57.76876258 107.75593193 58.17980862 102.3087635 C58.49811309 98.09464679 58.81859514 93.88069811 59.13984871 89.66680527 C59.29293435 87.65828334 59.44562332 85.64973115 59.59789848 83.64114761 C59.81120342 80.83498665 60.02715393 78.02904182 60.24389648 75.22314453 C60.33668633 73.99485176 60.33668633 73.99485176 60.43135071 72.741745 C60.49162445 71.96846359 60.55189819 71.19518219 60.61399841 70.39846802 C60.66469703 69.73821184 60.71539564 69.07795567 60.76763058 68.39769173 C61.10429757 64.923811 61.56709937 61.46320502 62 58 C40.22 58 18.44 58 -4 58 C-4 59.98 -4 61.96 -4 64 C-4.33 64 -4.66 64 -5 64 C-4.8583467 61.12473931 -4.71181468 58.24986464 -4.5625 55.375 C-4.52318359 54.56675781 -4.48386719 53.75851562 -4.44335938 52.92578125 C-4.40146484 52.13300781 -4.35957031 51.34023438 -4.31640625 50.5234375 C-4.27974854 49.80075684 -4.24309082 49.07807617 -4.20532227 48.33349609 C-4 46 -4 46 -3.51147461 43.15795898 C-2.95895547 39.74658187 -2.70578826 36.39869848 -2.5 32.94921875 C-2.4390918 31.96185478 -2.4390918 31.96185478 -2.37695312 30.95454407 C-2.24834494 28.86569672 -2.12378646 26.77663822 -2 24.6875 C-1.87590175 22.60909667 -1.75081116 20.5307723 -1.62304688 18.45259094 C-1.50675971 16.55927606 -1.39389904 14.66575162 -1.28125 12.7722168 C-0.96311502 8.50528667 -0.47251149 4.25260338 0 0 Z " fill="#981515" transform="translate(128,375)"/>
<path d="M0 0 C21.78 0 43.56 0 66 0 C67.68658288 3.37316576 67.30183372 7.21934174 67.4375 10.9375 C67.75857664 18.62392227 68.3336367 26.22284017 69.33959961 33.85131836 C70.28781501 41.68912154 70 48.88443241 70 57 C48.22 57 26.44 57 4 57 C4.98012255 69.72797736 4.98012255 69.72797736 5.97460938 82.45483398 C6.09816048 84.0935493 6.22123592 85.73230058 6.34375 87.37109375 C6.40852539 88.16938599 6.47330078 88.96767822 6.54003906 89.79016113 C7.16036991 98.24709213 7 106.43548248 7 115 C-37.22 115 -81.44 115 -127 115 C-127.70913258 110.03607196 -128.25183008 105.21023942 -128.53515625 100.22265625 C-128.57813339 99.49364609 -128.62111053 98.76463593 -128.66539001 98.01353455 C-128.75509115 96.47484986 -128.84324681 94.93607436 -128.92993164 93.3972168 C-129.06038571 91.09973561 -129.19882232 88.8028331 -129.33789062 86.50585938 C-129.42497047 84.9948199 -129.51157284 83.48375282 -129.59765625 81.97265625 C-129.63826675 81.31161392 -129.67887726 80.65057159 -129.72071838 79.96949768 C-130.13822612 72.29246068 -130 64.7281533 -130 57 C-86.11 57 -42.22 57 3 57 C1.9634136 38.4515215 1.9634136 38.4515215 0 20 C0 13.4 0 6.8 0 0 Z " fill="#9D7903" transform="translate(1791,433)"/>
<path d="M0 0 C65.34 0 130.68 0 198 0 C199.17287234 59.81648936 199.17287234 59.81648936 199 83 C198.67 83 198.34 83 198 83 C198 74.42 198 65.84 198 57 C132.66 57 67.32 57 0 57 C0 38.19 0 19.38 0 0 Z " fill="#0C6410" transform="translate(991,319)"/>
<path d="M0 0 C1.15249741 0.00222061 2.30499481 0.00444122 3.49241638 0.00672913 C5.4443264 0.00684242 5.4443264 0.00684242 7.43566895 0.00695801 C8.86661313 0.01206543 10.29755694 0.01728144 11.72850037 0.02259827 C13.18438672 0.02446249 14.64027369 0.02588637 16.09616089 0.02688599 C19.93488791 0.03071086 23.77357731 0.04054088 27.61228943 0.05158997 C31.52667227 0.06180474 35.44106117 0.06638375 39.35545349 0.07142639 C47.04101755 0.08216318 54.72655057 0.09923923 62.41209412 0.12025452 C60.31258342 32.84838806 58.0980703 65.56795672 55.82273865 98.28431702 C55.36895154 104.81077616 54.9181634 111.33743911 54.46800041 117.86414909 C54.11604861 122.96003066 53.76211188 128.05577294 53.40761185 133.15147781 C53.24024501 135.56189642 53.07359296 137.97236478 52.90769577 140.38288498 C52.67801815 143.717203 52.44554976 147.05131536 52.21238708 150.38539124 C52.14588959 151.35969589 52.07939209 152.33400055 52.01087952 153.33782959 C51.9465271 154.24997726 51.88217468 155.16212494 51.81587219 156.10191345 C51.76169569 156.882843 51.70751919 157.66377254 51.65170097 158.46836662 C51.33003511 162.02845589 50.85546763 165.57326643 50.41209412 169.12025452 C28.63209412 169.12025452 6.85209412 169.12025452 -15.58790588 169.12025452 C-15.58790588 149.58776766 -15.58790588 149.58776766 -14.97706604 142.04652405 C-14.91200363 141.17723267 -14.84694122 140.30794128 -14.77990723 139.41230774 C-14.56847642 136.60871256 -14.34796291 133.80592307 -14.12696838 131.00306702 C-13.97433182 129.01025547 -13.82219182 127.01740584 -13.67051697 125.02452087 C-13.3533229 120.87431171 -13.03190955 116.72446014 -12.70704651 112.57484436 C-12.29515039 107.31232541 -11.89124673 102.04923323 -11.49022865 96.78587532 C-11.17676794 92.6776422 -10.86033778 88.56964211 -10.54293442 84.46171188 C-10.3932815 82.5237002 -10.24419459 80.5856447 -10.09573746 78.64754105 C-9.29795077 68.26834948 -8.41832076 57.90915185 -7.26371956 47.56282234 C-6.39218652 39.68244197 -5.94735905 31.78532378 -5.52540588 23.87025452 C-5.40863434 21.71592876 -5.29040616 19.56171685 -5.16860962 17.40766907 C-5.06017476 15.48620274 -4.95655368 13.56446645 -4.85328674 11.64271545 C-3.99009784 0.18541141 -3.99009784 0.18541141 0 0 Z " fill="#D03535" transform="translate(206.58790588378906,262.87974548339844)"/>
<path d="M0 0 C0.33 0 0.66 0 1 0 C1.08564209 1.18029785 1.17128418 2.3605957 1.25952148 3.57666016 C1.57914353 7.97139955 1.9024317 12.36586298 2.22680664 16.76025391 C2.36647346 18.65926953 2.50515677 20.55835777 2.64282227 22.45751953 C2.84130119 25.19323263 3.04335951 27.92866186 3.24609375 30.6640625 C3.3065538 31.50804596 3.36701385 32.35202942 3.42930603 33.22158813 C3.48929276 34.02196503 3.54927948 34.82234192 3.61108398 35.64697266 C3.66215805 36.34424469 3.71323212 37.04151672 3.76585388 37.75991821 C4.05458327 40.52219953 4.54340974 43.26045842 5 46 C5.33 54.58 5.66 63.16 6 72 C-15.78 72 -37.56 72 -60 72 C-58.68758477 88.05001075 -58.68758477 88.05001075 -57.3671875 104.09936523 C-57.20283833 106.1274182 -57.03875813 108.15549298 -56.875 110.18359375 C-56.74544922 111.73391296 -56.74544922 111.73391296 -56.61328125 113.31555176 C-56.53207031 114.32960083 -56.45085937 115.3436499 -56.3671875 116.38842773 C-56.29612793 117.25668686 -56.22506836 118.12494598 -56.15185547 119.01951599 C-55.94863443 123.00815775 -56 127.00618454 -56 131 C-78.44 131 -100.88 131 -124 131 C-125.4375 111.375 -125.4375 111.375 -125.88452148 105.21240234 C-126.00482683 103.58689786 -126.12533728 101.96140853 -126.24609375 100.3359375 C-126.30575317 99.50296143 -126.3654126 98.66998535 -126.42687988 97.81176758 C-126.48766724 97.0003833 -126.54845459 96.18899902 -126.61108398 95.35302734 C-126.66215805 94.65575531 -126.71323212 93.95848328 -126.76585388 93.24008179 C-127.05458327 90.47780047 -127.54340974 87.73954158 -128 85 C-128 80.71 -128 76.42 -128 72 C-105.89 72 -83.78 72 -61 72 C-62.31176794 56.65316547 -62.31176794 56.65316547 -63.6328125 41.30712891 C-63.79720728 39.36363485 -63.9612901 37.42011437 -64.125 35.4765625 C-64.21136719 34.49131592 -64.29773437 33.50606934 -64.38671875 32.4909668 C-64.46792969 31.51764404 -64.54914063 30.54432129 -64.6328125 29.54150391 C-64.73940186 28.29574081 -64.73940186 28.29574081 -64.84814453 27.02481079 C-65.06584798 22.6883734 -65 18.34189867 -65 14 C-43.22 14 -21.44 14 1 14 C0.67 13.34 0.34 12.68 0 12 C-0.07065617 9.95944995 -0.08421976 7.91665743 -0.0625 5.875 C-0.05347656 4.77929688 -0.04445313 3.68359375 -0.03515625 2.5546875 C-0.02355469 1.71164062 -0.01195312 0.86859375 0 0 Z " fill="#9C7803" transform="translate(1994,476)"/>
<path d="M0 0 C0.33 0 0.66 0 1 0 C1 3.3 1 6.6 1 10 C22.78 10 44.56 10 67 10 C65.79227919 38.08062307 65.79227919 38.08062307 65.27148438 50.02148438 C64.91571511 58.17917507 64.56077501 66.33689412 64.21166992 74.49487305 C63.93030868 81.0696897 63.64444138 87.64430031 63.35578728 94.2188015 C63.2462332 96.731025 63.13820636 99.24331558 63.03170967 101.75567055 C62.88264801 105.26609419 62.72822859 108.77624322 62.57250977 112.28637695 C62.52935135 113.33222458 62.48619293 114.3780722 62.44172668 115.45561218 C62.37655853 116.88799728 62.37655853 116.88799728 62.31007385 118.34931946 C62.27412393 119.17985494 62.238174 120.01039042 62.20113468 120.86609364 C62 123 62 123 61 126 C38.89 126 16.78 126 -6 126 C-5.38967608 108.30060645 -4.74335676 90.62993507 -3.80859375 72.94921875 C-3.6977019 70.81591413 -3.58703501 68.6825978 -3.47657776 66.54927063 C-3.19111054 61.04713393 -2.9026763 55.54515706 -2.61352539 50.04321289 C-2.3166544 44.38372352 -2.02272549 38.72408134 -1.72851562 33.06445312 C-1.15514961 22.04282116 -0.57863484 11.02135652 0 0 Z " fill="#981515" transform="translate(457,422)"/>
<path d="M0 0 C21.45 0 42.9 0 65 0 C66.1253345 12.37867948 66.1253345 12.37867948 66.29711914 18.48974609 C66.31677231 19.15678055 66.33642548 19.823815 66.35667419 20.51106262 C66.41966028 22.68177165 66.47762293 24.85257763 66.53515625 27.0234375 C66.57838015 28.57492589 66.6217957 30.12640894 66.66539001 31.67788696 C66.7558665 34.92712698 66.84379699 38.17642333 66.92993164 41.42578125 C67.03803573 45.49536405 67.15271509 49.56472792 67.26950932 53.63406944 C67.36081065 56.84516713 67.44818193 60.05636405 67.53457451 63.2675972 C67.57523736 64.76201265 67.6170184 66.2563983 67.66017342 67.75074387 C68.09199869 82.84129796 68 97.89140934 68 113 C46.22 113 24.44 113 2 113 C0.84475433 88.73984098 0.84475433 88.73984098 0.68359375 81.25 C0.66276733 80.35740982 0.64194092 79.46481964 0.6204834 78.54518127 C0.55584975 75.69685315 0.49612112 72.84845778 0.4375 70 C0.41632111 69.01216522 0.39514221 68.02433044 0.37332153 67.00656128 C-0.0977936 44.66794488 -0.07138596 22.34380447 0 0 Z " fill="#0D6511" transform="translate(1254,263)"/>
<path d="M0 0 C0.33 0 0.66 0 1 0 C1.8536289 25.68151616 2.09080624 51.30183305 2 77 C-20.11 77 -42.22 77 -65 77 C-66.14948694 57.45872201 -66.14948694 57.45872201 -66.09765625 49.15234375 C-66.09664917 48.34381958 -66.09564209 47.53529541 -66.09460449 46.70227051 C-66.08950811 43.78066518 -66.07555154 40.85908062 -66.0625 37.9375 C-66.041875 31.358125 -66.02125 24.77875 -66 18 C-44.22 18 -22.44 18 0 18 C0 12.06 0 6.12 0 0 Z " fill="#0D6411" transform="translate(1326,530)"/>
<path d="M0 0 C22.44 0 44.88 0 68 0 C68.99 19.47 69.98 38.94 71 59 C48.56 59 26.12 59 3 59 C1.64514412 39.35458976 0.6560381 19.68114305 0 0 Z " fill="#9D7903" transform="translate(1529,548)"/>
<path d="M0 0 C22.11 0 44.22 0 67 0 C67 25.28398366 67 25.28398366 66.78125 36.1796875 C66.75905396 37.36934113 66.73685791 38.55899475 66.71398926 39.78469849 C66.64458513 43.48150527 66.5723615 47.17825006 66.5 50.875 C66.45163333 53.42447558 66.40345517 55.97395474 66.35546875 58.5234375 C66.23914453 64.68233452 66.12052364 70.84118379 66 77 C65.67 77 65.34 77 65 77 C65 70.73 65 64.46 65 58 C42.89 58 20.78 58 -2 58 C-1.855625 51.585625 -1.71125 45.17125 -1.5625 38.5625 C-1.51939697 36.57677979 -1.47629395 34.59105957 -1.43188477 32.54516602 C-1.39363043 30.90640718 -1.35515108 29.26765357 -1.31640625 27.62890625 C-1.29993042 26.83061401 -1.28345459 26.03232178 -1.26647949 25.20983887 C-1.06162787 16.78148249 -0.49621312 8.43562299 0 0 Z " fill="#981515" transform="translate(655,490)"/>
<path d="M0 0 C22.11 0 44.22 0 67 0 C67.020625 6.97125 67.04125 13.9425 67.0625 21.125 C67.071604 23.29465332 67.08070801 25.46430664 67.09008789 27.69970703 C67.09301547 29.4690749 67.09556202 31.23844345 67.09765625 33.0078125 C67.10277222 33.88622803 67.10788818 34.76464355 67.11315918 35.66967773 C67.11417945 43.19723318 66.54082478 50.42845312 66 58 C43.89 58 21.78 58 -1 58 C-1 38.66379332 -0.64418244 19.32547329 0 0 Z " fill="#0D6411" transform="translate(789,490)"/>
<path d="M0 0 C22.44 0 44.88 0 68 0 C68.495 10.456875 68.495 10.456875 69 21.125 C69.15662109 24.37947998 69.15662109 24.37947998 69.31640625 27.69970703 C69.39869454 29.46906359 69.48074089 31.23843141 69.5625 33.0078125 C69.60568359 33.88622803 69.64886719 34.76464355 69.69335938 35.66967773 C70.03342251 43.13689749 70 50.49906722 70 58 C47.89 58 25.78 58 3 58 C2.33370237 54.00221419 1.84860332 50.52849076 1.70288086 46.54541016 C1.66239624 45.49039307 1.62191162 44.43537598 1.5802002 43.34838867 C1.54213257 42.25631104 1.50406494 41.1642334 1.46484375 40.0390625 C1.42653442 39.02287842 1.3882251 38.00669434 1.34875488 36.9597168 C1.2074536 33.1816332 1.07287251 29.40330068 0.9375 25.625 C0.628125 17.16875 0.31875 8.7125 0 0 Z " fill="#9C7803" transform="translate(1459,490)"/>
<path d="M0 0 C22.11 0 44.22 0 67 0 C66.525625 7.528125 66.05125 15.05625 65.5625 22.8125 C65.41498291 25.16608643 65.26746582 27.51967285 65.11547852 29.94458008 C64.99507379 31.84457137 64.87455693 33.74455556 64.75390625 35.64453125 C64.69424683 36.60307007 64.6345874 37.56160889 64.57312012 38.54919434 C64.51233276 39.50209351 64.45154541 40.45499268 64.38891602 41.43676758 C64.33784195 42.2472908 64.28676788 43.05781403 64.23414612 43.89289856 C63.87943566 48.59987981 63.42735837 53.29905788 63 58 C40.56 58 18.12 58 -5 58 C-3 26 -3 26 -2 20 C-1.87931504 18.60232511 -1.78290796 17.20218901 -1.71875 15.80078125 C-1.66267578 14.69959961 -1.66267578 14.69959961 -1.60546875 13.57617188 C-1.53461143 12.05536383 -1.46430723 10.53452992 -1.39453125 9.01367188 C-1.2301338 5.8022528 -1.02231466 3.06694397 0 0 Z " fill="#981515" transform="translate(52,490)"/>
<path d="M0 0 C22.11 0 44.22 0 67 0 C68.125 12.375 68.125 12.375 68.11352539 16.56323242 C68.11340454 17.51613159 68.11328369 18.46903076 68.11315918 19.45080566 C68.10804321 20.40934448 68.10292725 21.3678833 68.09765625 22.35546875 C68.09664917 23.26832642 68.09564209 24.18118408 68.09460449 25.1217041 C68.08943887 28.47698249 68.07547861 31.83224274 68.0625 35.1875 C68.041875 42.715625 68.02125 50.24375 68 58 C45.89 58 23.78 58 1 58 C0.835 52.51375 0.67 47.0275 0.5 41.375 C0.44779297 39.69583496 0.39558594 38.01666992 0.34179688 36.28662109 C-0.00781583 24.17365089 0 12.1334735 0 0 Z " fill="#0D6411" transform="translate(1124,490)"/>
<path d="M0 0 C0.33 0 0.66 0 1 0 C1 3.63 1 7.26 1 11 C22.78 11 44.56 11 67 11 C67 25.625 67 25.625 66.81640625 30.8918457 C66.75634399 32.6622094 66.75634399 32.6622094 66.69506836 34.46833801 C66.62944702 36.30352242 66.62944702 36.30352242 66.5625 38.17578125 C66.51810791 39.46695358 66.47371582 40.75812592 66.42797852 42.08842468 C66.31157802 45.47328644 66.19253168 48.85804981 66.07287598 52.24279785 C65.95058703 55.71584481 65.83088079 59.18898076 65.7109375 62.66210938 C65.47644263 69.44149398 65.23914397 76.22077784 65 83 C64.67 83 64.34 83 64 83 C64 78.05 64 73.1 64 68 C42.55 68 21.1 68 -1 68 C-1 33.45721477 -1 33.45721477 -0.5 17.125 C-0.45143239 15.43100073 -0.40325634 13.7369902 -0.35546875 12.04296875 C-0.24141831 8.02850346 -0.12233321 4.01422105 0 0 Z " fill="#971515" transform="translate(592,364)"/>
<path d="M0 0 C21.78 0 43.56 0 66 0 C66.82414312 3.29657247 67.20530223 5.96638858 67.38891602 9.31933594 C67.48009705 10.93267822 67.48009705 10.93267822 67.57312012 12.57861328 C67.66260925 14.26446533 67.66260925 14.26446533 67.75390625 15.984375 C67.84085754 17.54115967 67.84085754 17.54115967 67.92956543 19.12939453 C68.14476463 23.00269748 68.35322901 26.87637224 68.5625 30.75 C69.036875 39.4125 69.51125 48.075 70 57 C47.56 57 25.12 57 2 57 C1.67 50.93625 1.34 44.8725 1 38.625 C0.89558594 36.75279785 0.79117187 34.8805957 0.68359375 32.95166016 C0.60118596 31.39748086 0.51913378 29.84328265 0.4375 28.2890625 C0.39431641 27.53906982 0.35113281 26.78907715 0.30664062 26.01635742 C-0.14047807 17.32149558 0 8.74831282 0 0 Z " fill="#9C7803" transform="translate(1591,433)"/>
<path d="M0 0 C21.78 0 43.56 0 66 0 C65.5359375 10.7971875 65.5359375 10.7971875 65.0625 21.8125 C64.91953491 25.18625854 64.91953491 25.18625854 64.77368164 28.62817383 C64.69437858 30.44613527 64.6148825 32.26408831 64.53515625 34.08203125 C64.49708862 34.99738647 64.459021 35.9127417 64.4197998 36.85583496 C64.13488634 43.27616857 63.58330508 49.58364413 63 56 C41.22 56 19.44 56 -3 56 C-3 37.97918835 -3 37.97918835 -2.59765625 31.2109375 C-2.55563583 30.49314117 -2.51361542 29.77534485 -2.47032166 29.03579712 C-2.38262718 27.55579252 -2.29269708 26.07591856 -2.20043945 24.59619141 C-2.06043799 22.34179612 -1.92917474 20.08700346 -1.79882812 17.83203125 C-1.43777466 11.81183111 -0.99368038 5.9620823 0 0 Z " fill="#981515" transform="translate(397,319)"/>
<path d="M0 0 C21.45 0 42.9 0 65 0 C65 8.29510339 64.98167174 16.3291468 64.34375 24.5546875 C64.28477539 25.36623291 64.22580078 26.17777832 64.16503906 27.01391602 C63.94890527 29.96802167 63.7239855 32.9214793 63.5 35.875 C63.005 42.51625 62.51 49.1575 62 56 C40.22 56 18.44 56 -4 56 C-4 49.25580988 -3.86913581 42.6809623 -3.37890625 35.9765625 C-3.28258156 34.61366592 -3.28258156 34.61366592 -3.18431091 33.22323608 C-3.04901643 31.32236444 -2.91195912 29.42161749 -2.77319336 27.52099609 C-2.56155483 24.61200861 -2.3575811 21.70255069 -2.15429688 18.79296875 C-2.02128949 16.93746724 -1.88784169 15.08199725 -1.75390625 13.2265625 C-1.6934462 12.35987946 -1.63298615 11.49319641 -1.57069397 10.60025024 C-1.48071388 9.38781143 -1.48071388 9.38781143 -1.38891602 8.15087891 C-1.33784195 7.44379791 -1.28676788 6.73671692 -1.23414612 6.00820923 C-1 4 -1 4 0 0 Z " fill="#981515" transform="translate(269,263)"/>
<path d="M0 0 C21.78 0 43.56 0 66 0 C64.68 18.48 63.36 36.96 62 56 C40.22 56.33 18.44 56.66 -4 57 C-2.85051306 34.01026119 -2.85051306 34.01026119 -2.24609375 26.953125 C-2.18812622 26.24591309 -2.13015869 25.53870117 -2.07043457 24.81005859 C-1.86295177 22.28974887 -1.6499667 19.76989447 -1.4375 17.25 C-0.963125 11.5575 -0.48875 5.865 0 0 Z " fill="#971414" transform="translate(207,207)"/>
<path d="M0 0 C21.45 0 42.9 0 65 0 C65.60193344 18.65993654 66 37.33035738 66 56 C44.22 56 22.44 56 0 56 C0 37.52 0 19.04 0 0 Z " fill="#0C6410" transform="translate(1122,207)"/>
<path d="M0 0 C21.45 0 42.9 0 65 0 C65.77177888 4.63067325 66.27450956 9.08441406 66.53515625 13.75 C66.59962196 14.85275269 66.59962196 14.85275269 66.66539001 15.9777832 C66.7552046 17.53083084 66.84335438 19.08397556 66.92993164 20.63720703 C67.0605651 22.96551395 67.19885374 25.29327545 67.33789062 27.62109375 C67.42494765 29.14320244 67.51154963 30.66533725 67.59765625 32.1875 C67.65857201 33.19925293 67.65857201 33.19925293 67.72071838 34.23144531 C68.09666349 41.17874222 68 48.00412757 68 55 C46.88 55 25.76 55 4 55 C4 61.6 4 68.2 4 75 C3.67 75 3.34 75 3 75 C2.73301209 68.49774048 2.46656275 61.99545903 2.20043945 55.49316406 C2.11038601 53.29426609 2.02022174 51.09537265 1.92993164 48.89648438 C1.79802679 45.6836065 1.66655983 42.47071091 1.53515625 39.2578125 C1.49656998 38.32019073 1.4579837 37.38256897 1.41822815 36.41653442 C0.92274176 24.27852246 0.46689408 12.13924596 0 0 Z " fill="#9A7703" transform="translate(1576,153)"/>
<path d="M0 0 C21.45 0 42.9 0 65 0 C65 19.54127799 65 19.54127799 64.5625 26.97265625 C64.52318359 27.70254761 64.48386719 28.43243896 64.44335938 29.18444824 C64.30058866 31.81074297 64.14989927 34.4366025 64 37.0625 C63.67 42.981875 63.34 48.90125 63 55 C41.22 55 19.44 55 -3 55 C-2.690625 47.224375 -2.38125 39.44875 -2.0625 31.4375 C-1.96718994 28.99529053 -1.87187988 26.55308105 -1.77368164 24.03686523 C-1.69445589 22.08576324 -1.61496508 20.13467198 -1.53515625 18.18359375 C-1.47805481 16.68270203 -1.47805481 16.68270203 -1.4197998 15.15148926 C-1.37931519 14.17780396 -1.33883057 13.20411865 -1.29711914 12.20092773 C-1.26380997 11.36375717 -1.23050079 10.52658661 -1.19618225 9.66404724 C-0.95779513 6.42688104 -0.45904408 3.21330857 0 0 Z " fill="#991515" transform="translate(534,208)"/>
<path d="M0 0 C0.33 0 0.66 0 1 0 C1.57402059 7.25877639 2.1431653 14.51792349 2.70898438 21.77734375 C2.90188193 24.24487892 3.09587947 26.71232836 3.29101562 29.1796875 C3.57193306 32.73415298 3.84884255 36.28891192 4.125 39.84375 C4.21249512 40.93989624 4.29999023 42.03604248 4.39013672 43.16540527 C4.47021973 44.20588013 4.55030273 45.24635498 4.6328125 46.31835938 C4.73940186 47.67737366 4.73940186 47.67737366 4.84814453 49.06384277 C5.03644718 52.70471376 5 56.35426284 5 60 C-16.45 60 -37.9 60 -60 60 C-61.80520439 41.34622131 -63.50550087 22.68123911 -65 4 C-43.55 4.33 -22.1 4.66 0 5 C0 3.35 0 1.7 0 0 Z " fill="#9B7803" transform="translate(1970,203)"/>
<path d="M0 0 C21.45 0 42.9 0 65 0 C65 8.7448623 64.9932494 17.37564647 64.5625 26.08984375 C64.51810791 27.04524551 64.47371582 28.00064728 64.42797852 28.98500061 C64.28857918 31.9693315 64.1443955 34.95340713 64 37.9375 C63.90332532 39.98891721 63.80696895 42.04034945 63.7109375 44.09179688 C63.47762116 49.06137847 63.24002088 54.0307379 63 59 C62.505 57.02 62.505 57.02 62 55 C40.55 55 19.1 55 -3 55 C-2.2661634 36.65408506 -1.221328 18.31992001 0 0 Z " fill="#981515" transform="translate(341,153)"/>
<path d="M0 0 C21.45 0 42.9 0 65 0 C67.3625 21.2625 67.3625 21.2625 68.125 30.375 C68.21136719 31.33792969 68.29773437 32.30085938 68.38671875 33.29296875 C68.97504349 40.26881928 69 46.9431849 69 54 C47.55 54 26.1 54 4 54 C3.34 46.20375 2.68 38.4075 2 30.375 C1.79117187 27.92368652 1.58234375 25.47237305 1.3671875 22.94677734 C1.20292681 20.99318072 1.03885184 19.03956846 0.875 17.0859375 C0.78863281 16.08022705 0.70226563 15.0745166 0.61328125 14.03833008 C0.53207031 13.06452393 0.45085937 12.09071777 0.3671875 11.08740234 C0.29612793 10.24801117 0.22506836 9.40862 0.15185547 8.54379272 C-0.01788066 5.70047383 0 2.84838071 0 0 Z " fill="#9D7903" transform="translate(1836,153)"/>
<path d="M0 0 C21.45 0 42.9 0 65 0 C65.495 9.466875 65.495 9.466875 66 19.125 C66.15662109 22.06623779 66.15662109 22.06623779 66.31640625 25.06689453 C66.39872077 26.67218602 66.48076846 28.27749122 66.5625 29.8828125 C66.60568359 30.67486084 66.64886719 31.46690918 66.69335938 32.28295898 C67.05739196 39.54844273 67 46.69238348 67 54 C45.88 54 24.76 54 3 54 C3 56.97 3 59.94 3 63 C2.67 63 2.34 63 2 63 C1.71177037 55.95667802 1.42736605 48.91320871 1.14550781 41.86962891 C1.04936487 39.47799253 0.95237525 37.08639001 0.85449219 34.69482422 C0.71321688 31.23934546 0.57507841 27.7837527 0.4375 24.328125 C0.39375244 23.27449768 0.35000488 22.22087036 0.30493164 21.13531494 C0.26489014 20.11516296 0.22484863 19.09501099 0.18359375 18.04394531 C0.14806396 17.16458313 0.11253418 16.28522095 0.07592773 15.37921143 C-0.03923012 10.25403872 0 5.12646628 0 0 Z " fill="#9D7903" transform="translate(1444,99)"/>
<path d="M0 0 C0.33 0.99 0.66 1.98 1 3 C22.12 3 43.24 3 65 3 C65.020625 9.31125 65.04125 15.6225 65.0625 22.125 C65.071604 24.0858252 65.08070801 26.04665039 65.09008789 28.06689453 C65.09301641 29.67219983 65.09556274 31.27750589 65.09765625 32.8828125 C65.10277222 33.67486084 65.10788818 34.46690918 65.11315918 35.28295898 C65.11425052 42.60150291 64.52616264 49.63372298 64 57 C42.55 57 21.1 57 -1 57 C-0.67 38.19 -0.34 19.38 0 0 Z " fill="#0D6410" transform="translate(797,96)"/>
<path d="M0 0 C21.12 0 42.24 0 64 0 C64.61660471 4.31623299 65.1249989 7.87540717 65.11352539 12.10913086 C65.11340454 13.06251343 65.11328369 14.015896 65.11315918 14.99816895 C65.10804321 15.97717163 65.10292725 16.95617432 65.09765625 17.96484375 C65.09664917 18.88172974 65.09564209 19.79861572 65.09460449 20.74328613 C65.08940499 24.14137029 65.07544391 27.53943651 65.0625 30.9375 C65.041875 38.548125 65.02125 46.15875 65 54 C43.55 54 22.1 54 0 54 C0 36.18 0 18.36 0 0 Z " fill="#0D6411" transform="translate(1121,99)"/>
<path d="M0 0 C21.45 0 42.9 0 65 0 C64.5359375 12.5296875 64.5359375 12.5296875 64.0625 25.3125 C63.91953491 29.26536987 63.91953491 29.26536987 63.77368164 33.2980957 C63.69452323 35.38233754 63.61503727 37.46656698 63.53515625 39.55078125 C63.49708862 40.63661499 63.459021 41.72244873 63.4197998 42.84118652 C63.35907288 44.39380188 63.35907288 44.39380188 63.29711914 45.9777832 C63.24715538 47.32680473 63.24715538 47.32680473 63.19618225 48.70307922 C63 51 63 51 62 54 C40.55 54 19.1 54 -3 54 C-2.690625 47.503125 -2.38125 41.00625 -2.0625 34.3125 C-1.96718994 32.29036377 -1.87187988 30.26822754 -1.77368164 28.18481445 C-1.69432092 26.53596293 -1.61482113 24.8871181 -1.53515625 23.23828125 C-1.49708862 22.41952515 -1.459021 21.60076904 -1.4197998 20.75720215 C-1.08172977 13.8191978 -0.53346308 6.93502002 0 0 Z " fill="#991515" transform="translate(474,99)"/>
<path d="M0 0 C21.12 0 42.24 0 64 0 C64.64846005 5.83614047 65.17748849 11.46549709 65.31640625 17.3046875 C65.34764587 18.44205605 65.34764587 18.44205605 65.3795166 19.60240173 C65.44465048 22.02651391 65.50390164 24.45072176 65.5625 26.875 C65.60534903 28.53995867 65.64823651 30.20491635 65.69116211 31.86987305 C65.96717415 42.91421909 66.13602067 53.9520987 66 65 C65.67 65 65.34 65 65 65 C65 61.04 65 57.08 65 53 C43.88 53 22.76 53 1 53 C0.29377231 35.34430787 0 17.66981104 0 0 Z " fill="#0D6410" transform="translate(1249,45)"/>
<path d="M0 0 C21.45 0 42.9 0 65 0 C65.495 8.6625 65.495 8.6625 66 17.5 C66.15662109 20.17899414 66.15662109 20.17899414 66.31640625 22.91210938 C66.39878944 24.38930333 66.48084048 25.86651586 66.5625 27.34375 C66.60568359 28.06079102 66.64886719 28.77783203 66.69335938 29.51660156 C67.11898565 37.37041978 67 45.09109918 67 53 C45.88 53 24.76 53 3 53 C2.03951315 50.11853945 1.81647925 48.07615093 1.70288086 45.06958008 C1.64215393 43.54741882 1.64215393 43.54741882 1.5802002 41.99450684 C1.54213257 40.93026489 1.50406494 39.86602295 1.46484375 38.76953125 C1.40737976 37.29969788 1.40737976 37.29969788 1.34875488 35.8001709 C1.20686601 32.13779689 1.0726452 28.47512905 0.9375 24.8125 C0.628125 16.624375 0.31875 8.43625 0 0 Z " fill="#9C7803" transform="translate(1506,45)"/>
<path d="M0 0 C21.12 0 42.24 0 64 0 C64 7.47882771 63.92709159 14.72115844 63.34375 22.140625 C63.28477539 22.93452637 63.22580078 23.72842773 63.16503906 24.54638672 C62.94821347 27.44795796 62.72368878 30.34894979 62.5 33.25 C62.005 39.7675 61.51 46.285 61 53 C39.55 53.33 18.1 53.66 -4 54 C-3.71125 48.988125 -3.4225 43.97625 -3.125 38.8125 C-3.03879395 37.28085205 -2.95258789 35.7492041 -2.86376953 34.17114258 C-2.18644896 22.72900727 -1.08898926 11.43438718 0 0 Z " fill="#981414" transform="translate(284,45)"/>
<path d="M0 0 C0.495 1.98 0.495 1.98 1 4 C22.78 4 44.56 4 67 4 C67 4.33 67 4.66 67 5 C45.22 5 23.44 5 1 5 C0.67 5.66 0.34 6.32 0 7 C0 6.34 0 5.68 0 5 C-21.78 5 -43.56 5 -66 5 C-66 6.98 -66 8.96 -66 11 C-66.33 11 -66.66 11 -67 11 C-67 8.69 -67 6.38 -67 4 C-44.89 4 -22.78 4 0 4 C0 2.68 0 1.36 0 0 Z " fill="#B12525" transform="translate(190,428)"/>
</svg>
